<svg width="354" height="369" viewBox="0 0 354 369" fill="none" xmlns="http://www.w3.org/2000/svg">
<g opacity="0.85">
<path d="M147.534 262.429C139.841 260.994 131.83 262.752 124.823 256.83C117.844 249.615 114.504 238.633 108.208 233.622C107.531 231.811 114.539 232.715 112.133 228.183C110.887 226.085 107.36 226.072 109.043 222.979C110.115 223.876 111.905 223.017 112.791 223.315C112.797 219.739 115.322 216.149 112.334 212.982C114.725 214.092 116.436 212.91 118.161 211.608C119.682 210.04 121.736 209.099 123.919 208.97C125.571 206.972 121.738 205.297 123.011 203.184C124.367 203.46 125.4 205.344 126.742 206.649C128.084 207.954 129.406 208.363 131.15 206.425C131.73 205.345 130.906 203.479 132.195 202.972C134.494 204.023 133.012 207.791 136.579 206.533C138.04 205.981 137.31 202.982 139.626 204.732C140.872 206.831 143.193 206.82 145.784 207.216C148.57 207.603 151.26 208.502 153.718 209.869C154.718 210.072 155.279 210.109 155.832 210.179C156.542 210.342 157.236 210.567 157.906 210.853C159.361 211.439 157.612 211.026 156.845 211.168C162.132 213.15 167.612 214.576 173.195 215.424C172.254 215.41 171.319 215.569 170.436 215.893C170.992 216.16 171.634 216.716 172.398 217.143C173.248 217.711 174.199 218.112 175.199 218.322C177.761 218.622 178.261 216.881 181.005 217.726C182.201 218.068 180.713 218.239 179.303 218.732C178.657 218.926 178.043 219.212 177.48 219.582C177.06 219.831 177.095 220.32 177.725 220.713C178.834 221.652 179.674 222.868 180.158 224.237C180.483 225.041 181.033 225.736 181.743 226.236C182.453 226.737 183.292 227.022 184.16 227.059C185.238 230.788 181.415 231.999 179.962 234.332C180.996 236.074 183.706 236.145 183.605 238.699C176.769 246.312 175.715 250.847 168.544 258.516C160.832 257.575 151.781 265.136 147.534 262.429Z" fill="#E1E1E1"/>
<path d="M67.5675 235.158C66.7267 234.38 66.0889 233.408 65.7098 232.328C65.3307 231.247 65.2218 230.091 65.3924 228.959C65.7174 226.415 66.4019 223.93 67.4253 221.578C70.8835 222 75.8452 217.735 77.7742 222.945C79.2593 226.52 79.9398 230.376 79.7675 234.241C77.1002 237.972 71.679 240.411 67.5675 235.158Z" fill="#E1E1E1"/>
<path d="M86.0099 247.438L85.2798 246.877L86.0099 247.438Z" fill="white"/>
<path d="M146.617 289.515L146.295 291.123L146.009 289.591L146.617 289.515Z" fill="white"/>
<path d="M141.995 289.669L142.183 290.607L141.269 290.694L141.995 289.669Z" fill="white"/>
<path d="M143.413 285.742L142.543 286.143L142.389 285.213L143.413 285.742Z" fill="white"/>
<path d="M141.094 161.362C140.056 160.892 139.142 160.186 138.424 159.301C137.707 158.417 137.206 157.377 136.962 156.265C136.714 155.208 136.216 154.226 135.509 153.401C134.802 152.576 133.907 151.932 132.899 151.524C133.709 149.685 132.168 146.515 130.91 143.63C129.652 140.746 128.605 138.361 129.849 139.071C130.244 139.629 130.681 140.158 131.156 140.651C132.111 141.304 129.91 138.552 129.038 137.084C131.485 140.201 130.934 139.704 129.038 137.084C129.786 138.343 130.996 139.951 131.328 140.606C132.445 143.205 128.103 136.56 128.219 137.568C129.508 139.271 130.655 141.077 131.65 142.966C133.245 147.182 126.995 137.895 128.742 142.417C129.477 144.42 130.604 144.406 132.083 147.472C134.523 152.492 132.966 152.307 132.26 152.838C133.154 155.54 133.978 155.11 134.627 155.917C135.949 160.152 137.672 166.928 136.145 167.462C137.527 169.791 139.668 170.482 140.926 174.131C143.339 180.443 140.818 178.73 141.911 183.583C143.319 185.046 141.902 180.413 143.508 183.262C144.405 184.773 142.955 184.099 144.06 185.77C144.606 185.447 144.902 183.459 146.414 186.533C148.141 190.302 146.248 190.316 147.713 193.502C148.442 193.44 148.629 192.224 148.317 190.312C151.428 192.781 152.184 198.739 152.582 201.083C153.64 202.102 153.337 197.576 154.912 201.662C155.863 203.934 154.435 203.871 155.503 206.244C157.236 207.204 154.357 194.082 158.631 204.055C158.802 205.358 159.262 206.606 159.977 207.71C159.642 203.656 160.134 200.899 162.402 202.903C164.669 204.907 163.581 210.341 165.609 210.984C165.132 207.695 163.113 202.284 164.162 201.041C164.916 200.255 168.031 209.184 166.9 203.645C165.227 199.249 166.28 200.497 167.255 201.423L167.956 202.029C168.142 202.344 168.41 202.413 168.432 202.258C167.979 200.672 167.362 199.136 166.592 197.677C166.636 197.368 166.736 197.393 166.865 197.515L167.538 198.648C168.223 199.802 168.933 200.998 169.194 200.674L166.526 195.222C165.976 194.207 165.571 193.121 165.32 191.995C165.321 191.711 165.509 191.883 165.762 192.215L167.292 194.457C168.251 196.073 169.154 197.211 168.355 195.388C167.556 193.564 166.649 192.513 165.864 191.191L163.847 187.792C162.856 185.884 161.754 184.267 160.399 182.319C158.623 179.996 160.524 182.529 159.104 181.044C157.683 179.559 156.488 177.403 155.046 176.073C153.604 174.743 156.406 178.699 154.217 176.875C153.932 175.74 153.322 174.712 152.461 173.917C151.478 172.882 150.286 171.829 149.47 170.838L148.404 170.476L147.27 170.239C146.241 167.715 144.694 165.434 142.728 163.542C142.121 163.476 141.451 163.589 140.793 163.581C140.317 162.445 141.878 162.684 141.094 161.362Z" fill="#E1E1E1"/>
<path d="M145.225 228.972C144.249 227.423 143.607 225.689 143.337 223.88C143.199 222.151 142.588 220.492 141.57 219.085C142.436 220.019 142.21 217.63 141.713 214.976C141.142 213.012 140.888 210.971 140.961 208.928C141.678 210.375 144.654 215.533 144.37 212.328C144.259 209.559 142.658 204.042 145.087 206.603C147.841 211.722 151.342 211.835 152.808 211.196C154.48 215.877 157.58 219.713 159.049 220.036C161.901 219.342 163.055 214.833 160.957 207.569C162.127 208.918 162.572 212.681 164.568 213.939C162.632 208.478 164.499 210.38 166.495 212.403C168.49 214.427 170.758 216.431 168.884 211.218C169.525 213.605 170.515 215.885 171.823 217.985C174.441 219.527 175.779 217.574 180.248 223.238L180.951 224.948C183.514 228.167 184.103 226.146 185.16 225.919C187.975 230.661 181.751 226.63 186.397 232.784C189.308 236.733 193.778 239.959 194.009 238.149C193.996 239.801 192.265 239.18 192.29 240.895C194.792 244.632 199.363 249.895 200.864 248.98C200.23 249.921 195.863 247.202 198.643 252.362C200.486 255.468 201.932 253.649 204.019 256.639C203.613 257.389 200.416 254.489 201.401 257.535C202.659 258.889 205.518 261.507 205.464 263.042C205.75 268.542 196.134 263.341 201.775 272.366C196.995 270.882 192.442 268.746 188.245 266.019C184.657 263.656 180.934 261.502 177.095 259.571C178.279 263.095 180.299 261.334 180.807 265.059C178.903 264.625 175.275 261.667 175.626 264.889L178.601 268.8C174.009 265.845 171.721 266.773 169.057 266.731C166.393 266.69 163.459 265.476 158.744 258.059C154.66 251.614 151.187 244.803 148.37 237.714C148.077 236.073 144.892 229.368 145.225 228.972Z" fill="#E1E1E1"/>
<path opacity="0.3" d="M195.474 249.351L195.25 248.974L195.838 248.626L196.107 249.033L195.474 249.351Z" fill="white"/>
<path d="M174.566 189.755C170.343 184.637 166.526 179.197 163.15 173.487C160.067 166.162 157.409 158.667 155.189 151.039C156.558 153.065 158.211 154.885 160.099 156.441C161.017 155.36 157.855 149.888 158.612 149.157C160.506 152.088 162.683 154.826 165.112 157.333C167.404 159.379 164.067 154.521 163.083 152.863C166.622 156.1 165.448 157.134 169.738 160.777C172.257 162.775 168.788 158.221 169.918 158.546C171.562 160.408 171.394 162.038 175.225 165.527C180.565 170.364 175.393 163.132 178.45 165.463C180.119 168.275 178.255 167.62 180.162 170.546C183.388 173.208 186.251 176.28 188.679 179.683C191.529 183.242 194.088 186.407 195.506 186.022C191.473 186.734 213.657 207.804 207.908 206.582L210.572 207.389C209.866 210.98 212.567 218.256 205.555 215.286C200.265 215.267 190.093 207.022 181.776 199.608C179.634 196.141 177.223 192.846 174.566 189.755Z" fill="#E1E1E1"/>
<path d="M198.389 173.971C193.67 168.03 187.376 161.489 183.357 156.439C181.887 154.961 180.761 153.178 180.059 151.217C179.299 149.164 178.06 147.321 176.443 145.843L179.072 148.455C178.895 147.058 180.774 147.45 179.712 145.47C181.766 146.585 183.66 147.974 185.34 149.597C191.185 153.994 185.061 147.835 187.12 148.914C189.27 150.959 187.4 150.534 190.987 153.374C194.575 156.214 192.713 153.318 196.479 156.506C198.059 158.507 200.082 160.115 202.389 161.204C209.814 167.785 211.968 173.087 220.054 179.107C220.517 180.223 215.948 176.971 218.867 180.263C219.625 180.736 220.356 181.249 221.058 181.802C225.261 186.829 216.121 181.517 224.315 189.202C222.157 189.344 220.192 191.101 216.718 188.931C209.974 183.592 205.121 180.196 198.389 173.971Z" fill="#E1E1E1"/>
<path opacity="0.3" d="M214.095 178.147L214.457 179.236L213.894 178.096L214.095 178.147Z" fill="white"/>
<path d="M86.8485 74.4025L88.9134 76.0165L86.8485 74.4025Z" fill="#E1E1E1"/>
<path d="M84.9135 72.9125L84.4494 72.5619L84.9135 72.9125Z" fill="#E1E1E1"/>
<path d="M193.145 148.591C186.698 143.898 181.432 139.329 176.699 136.089C173.167 133.425 169.488 130.962 165.679 128.712C163.119 127.221 160.636 126.194 156.371 123.981L162.395 127.961C161.891 128.259 162.921 129.804 158.801 127.93C160.915 128.916 162.895 130.165 164.696 131.646C165.12 132.36 162.75 131.237 163.793 132.18C165.438 133.135 165.809 132.661 167.6 133.813C169.77 135.365 166.33 133.969 167.856 135.249C169.871 135.249 175.795 139.061 179.315 141.118C180.202 142.182 177.299 140.638 176.753 140.819C180.232 142.901 180.1 141.675 183.094 143.42C185.474 144.848 182.167 143.628 184.535 145.035C188.331 147.27 189.574 146.592 192.623 149.098C193.47 149.76 190.871 148.49 192.7 149.705C193.679 149.92 196.741 151.398 196.638 151.034C198.287 152.04 199.882 153.131 201.417 154.303C203.289 155.21 200.782 153.233 202.72 154.299C204.658 155.364 208.698 158.249 208.519 157.901C208.802 158.053 209.074 158.223 209.334 158.412C209.533 158.748 210.426 159.297 213.168 161.333C210.346 159.401 209.828 159.197 209.931 159.419C210.035 159.641 210.529 160.426 210.083 160.152C206.846 158.238 199.976 153.596 193.145 148.591Z" fill="#E1E1E1"/>
<path opacity="0.3" d="M194.058 148.644L193.816 148.475L193.045 147.797L193.333 147.995L194.058 148.644Z" fill="white"/>
<path opacity="0.3" d="M189.394 146.526L190.793 147.4L189.959 146.759L189.394 146.526Z" fill="white"/>
<path opacity="0.3" d="M187.487 145.273C189.156 146.412 186.416 144.999 188.714 146.05C188.326 145.759 187.916 145.499 187.487 145.273Z" fill="white"/>
<path d="M167.824 271.53C167.408 271.234 166.952 270.998 166.471 270.828C166.222 270.752 165.969 270.693 165.713 270.652C165.572 270.862 165.459 271.091 165.379 271.331C164.873 272.613 164.524 273.952 164.34 275.318C164.097 276.922 164.207 278.559 164.663 280.116C164.774 280.505 164.922 280.883 165.105 281.244L165.603 282.083L174.446 304.917C174.759 305.165 175.155 305.285 175.554 305.254L175.834 306.874C177.659 309.565 179.619 308.804 180.783 308.853L180.801 311.847C184.882 313.941 190.022 316.912 193.858 315.296C194.41 317.039 192.6 317.145 191.243 317.296C189.885 317.446 188.883 317.67 190.994 319.937C192.619 321.527 193.916 319.457 195.862 320.489C196.46 321.496 197.846 323.114 197.228 324.415C198.265 324.681 200.55 325.853 201.729 326.261L199.589 326.959C201.885 328.437 204.108 327.831 206.671 328.612C206.209 328.885 204.18 328.526 203.841 329.293L206.241 330.851C201.889 330.021 199.471 332.018 196.866 333.558C197.433 334.344 198.163 334.999 199.006 335.479C199.849 335.959 200.785 336.252 201.751 336.339C198.901 336.748 195.269 334.501 193.066 335.237C192.148 335.553 194.061 337.2 194.897 337.556C192.446 337.206 190.053 336.521 187.788 335.522C187.343 335.303 186.92 335.039 186.527 334.737C186.344 334.607 186.172 334.462 186.014 334.303L185.852 334.031L185.765 333.884L166.563 284.322C166.115 283.689 165.82 282.962 165.699 282.197C165.576 280.521 165.76 278.838 166.24 277.228L166.839 274.748L166.96 274.138L167.037 273.838L168.066 273.994C169.62 273.983 168.457 272.261 167.824 271.53Z" fill="#E1E1E1"/>
<path opacity="0.3" d="M176.082 138.497L175.886 138.358L175.176 138.069L175.351 138.221L176.082 138.497Z" fill="white"/>
<path opacity="0.3" d="M166.092 271.71L165.846 272.394L166.092 271.71Z" fill="white"/>
<path opacity="0.3" d="M164.776 274.896C164.983 273.669 164.913 275.127 165.09 274.088C165.039 273.523 164.859 274.224 164.776 274.896Z" fill="white"/>
<path opacity="0.3" d="M164.53 276.827L164.614 276.013C164.544 276.238 164.491 276.468 164.456 276.701L164.53 276.827Z" fill="white"/>
<path opacity="0.3" d="M164.47 275.531C164.306 276.449 164.508 276.217 164.557 275.678C164.494 275.715 164.518 275.277 164.47 275.531Z" fill="white"/>
<path opacity="0.3" d="M164.575 277.623L164.488 277.476C164.507 278.504 164.621 279.528 164.828 280.535C164.659 279.763 164.61 278.97 164.681 278.184C164.654 277.803 164.553 278.685 164.575 277.623Z" fill="white"/>
<path opacity="0.3" d="M165.403 281.84L165.322 281.32L165.403 281.84Z" fill="white"/>
<path opacity="0.3" d="M174.949 306.349L174.912 306.206L174.833 305.908C175.375 307.742 176.444 309.377 177.908 310.61C179.723 311.73 181.398 313.061 182.9 314.575C181.758 313.647 182.94 315.223 182.346 315.195C182.597 315.409 182.783 315.627 182.924 315.85C183.474 316.294 182.78 314.702 183.759 315.257L183.663 315.909C185.455 317.684 186.472 315.382 187.737 316.845C187.864 318.301 186.136 318.019 185.014 317.803C183.893 317.587 183.286 317.663 185.4 320.126C183.087 318.61 183.748 317.15 182.924 315.85C182.8 315.75 182.614 315.548 182.331 315.194C182.336 315.195 182.341 315.195 182.346 315.195C182.032 314.929 181.614 314.671 181.049 314.421C180.57 315.669 184.037 317.304 182.505 317.161C180.973 317.018 181.439 314.503 179.955 313.821C181.411 315.795 178.883 314.597 180.613 316.267L181.08 315.764C180.809 317.831 178.984 314.404 178.559 314.588C178.736 314.973 178.64 315.333 178.479 315.062C178.453 314.762 178.484 314.62 178.559 314.588C178.502 314.466 178.418 314.341 178.299 314.233C178.192 314.722 178.254 314.827 178.125 314.705L177.988 314.474L169.132 291.366L165.714 282.56L165.838 282.769L169.132 291.366L174.949 306.349Z" fill="white"/>
<path opacity="0.3" d="M165.814 283.154L165.509 282.258C165.566 282.593 165.943 283.418 165.814 283.154Z" fill="white"/>
<path opacity="0.3" d="M164.933 280.473C165.055 281.111 164.795 280.242 164.833 280.305C164.87 280.368 164.884 280.247 164.933 280.473Z" fill="white"/>
<path opacity="0.3" d="M166.274 283.985L166.348 284.111L166.062 283.628L166.236 283.922L166.323 284.069L166.357 284.077L184.024 329.668L184.037 329.689L184.079 329.664L183.999 329.626L166.357 284.077L166.344 284.056L166.311 284.048L166.274 283.985Z" fill="white"/>
<path opacity="0.3" d="M165.799 282.795C165.581 282.438 165.403 282.059 165.269 281.662C165.413 282.054 165.591 282.433 165.799 282.795Z" fill="white"/>
<path opacity="0.3" d="M164.667 279.978C164.732 280.281 164.823 280.578 164.939 280.866C164.823 280.578 164.732 280.281 164.667 279.978Z" fill="#E1E1E1"/>
<path opacity="0.3" d="M165.41 281.947L165.049 281.339C165.155 281.55 165.276 281.753 165.41 281.947Z" fill="#E1E1E1"/>
<path d="M164.616 135.528C160.517 132.473 156.745 129.002 153.36 125.172C150.61 121.874 148.102 118.383 145.853 114.726C146.863 112.289 148.638 110.245 150.911 108.902C152.286 108.019 153.743 107.272 155.263 106.67L155.913 106.427L156.208 106.253L156.67 105.98C157.279 105.62 157.805 105.167 158.39 104.765L160.218 103.685C160.89 103.287 161.562 102.89 162.319 102.443C163.194 102.435 163.518 102.981 163.556 103.809C163.495 104.745 163.353 105.673 163.131 106.584C165.219 106.604 167.248 105.896 168.868 104.582C170.816 103.191 172.59 101.572 174.151 99.7582C169.768 104.616 171.59 109.55 171.266 113.738C172.514 114.645 173.046 114.585 173.821 113.787C174.596 112.989 175.23 112.048 176.227 111.911C175.827 113.133 175.122 114.232 174.179 115.107C173.53 115.83 172.868 116.533 173.093 117.676C174.179 118.168 174.322 116.496 175.378 117.318C176.087 121.86 176.453 123.911 174.341 127.286C175.53 128.907 177.892 129.156 178.448 129.423C175.144 129.93 175.491 134.005 175.613 137.08L177.701 138.397C175.606 138.502 175.537 141.207 175.817 142.827C176.098 144.447 176.415 144.742 172.376 141.573L164.616 135.528Z" fill="#E1E1E1"/>
<path opacity="0.3" d="M165.187 281.428C165.057 281.18 164.951 280.92 164.869 280.652C164.94 280.817 165.032 280.973 165.143 281.114L165.187 281.428Z" fill="#E1E1E1"/>
<path opacity="0.3" d="M186.191 330.932C186.627 331.04 187.08 331.052 187.52 330.968C187.96 330.884 188.377 330.706 188.741 330.446C189.204 330.172 189.582 329.949 192.413 330.175C192.292 330.416 192.234 330.683 192.244 330.952C192.253 331.222 192.331 331.484 192.468 331.716C192.606 331.948 192.799 332.142 193.031 332.279C193.263 332.417 193.526 332.495 193.796 332.505L193.209 330.272L193.827 330.644C191.9 329.741 193.763 328.385 190.905 326.87L190.807 327.325C190.035 325.116 192.502 327.599 193.261 327.491L192.523 327.587C194.14 329.211 194.552 327.323 196.803 328.771C196.199 327.228 195.681 325.494 194.111 325.287C195.454 325.542 199.331 326.143 199.116 327.12C196.843 325.969 198.189 327.328 196.722 329.017C197.482 330.298 199.273 329.92 198.965 328.826C198.827 331.176 197.673 331.432 195.795 332.429L195.67 332.219C194.272 331.968 195.434 334.117 196.378 333.984C194.979 333.733 194.95 333.014 195.343 332.242C194.899 333.837 192.429 334.22 190.829 334.202C189.229 334.184 188.199 334.027 189.751 335.208C189.245 335.075 188.772 334.84 188.361 334.518C187.949 334.195 187.609 333.791 187.36 333.332C186.832 332.398 186.166 331.549 185.383 330.814C185.26 330.32 185.809 331.101 186.191 330.932Z" fill="white"/>
<path opacity="0.3" d="M184.602 328.927C183.316 327.334 185.738 330.268 184.776 329.986C184.523 329.512 185.242 329.909 184.602 328.927Z" fill="white"/>
<path opacity="0.3" d="M185.697 327.855C184.818 326.9 185.712 327.449 186.277 327.682C186.069 328.145 184.687 327.97 184.38 328.265C183.297 326.297 185.314 328.308 185.697 327.855Z" fill="white"/>
<path opacity="0.3" d="M175.599 307.724C175.886 308.206 175.948 308.311 175.96 308.332C175.973 308.353 175.96 308.332 175.96 308.332L165.87 282.297L175.948 308.311L176.035 308.458C176.035 308.458 175.997 308.537 175.599 307.724Z" fill="#E1E1E1"/>
<path opacity="0.3" d="M176.925 310.537L176.34 309.551C176.508 309.769 176.695 309.972 176.898 310.157L176.925 310.537Z" fill="#E1E1E1"/>
<path opacity="0.3" d="M186.734 329.027C186.442 328.774 186.959 330.793 185.602 329.129C186.018 328.968 185.813 328.097 186.734 329.027Z" fill="white"/>
<path opacity="0.3" d="M187.131 330.606C188.376 331.316 187.194 331.476 187.553 332.369C186.422 330.94 187.612 331.512 187.131 330.606Z" fill="#E1E1E1"/>
<path opacity="0.3" d="M179.858 315.861L179.571 316.144L179.751 316.208L179.858 315.861Z" fill="white"/>
<path opacity="0.3" d="M191.511 334.11L190.922 334.599L190.661 334.159L191.511 334.11Z" fill="#E1E1E1"/>
<path opacity="0.3" d="M190.498 333.264L189.785 332.636L190.472 332.598L190.498 333.264Z" fill="#E1E1E1"/>
<path opacity="0.3" d="M187.964 327.081L188.649 325.939L188.519 327.49C190.178 328.324 187.769 329.095 187.964 327.081Z" fill="white"/>
<path opacity="0.3" d="M187.448 325.062C187.767 324.165 187.344 325.748 186.707 325.727C187.18 325.759 186.3 324.181 187.448 325.062Z" fill="white"/>
<path opacity="0.3" d="M182.501 318.067L183.07 318.356L182.501 318.067Z" fill="white"/>
<path opacity="0.3" d="M189.604 329.03C190.067 329.247 190.542 329.44 191.025 329.607C190.542 329.44 190.067 329.247 189.604 329.03Z" fill="white"/>
<path opacity="0.3" d="M188.215 323.39L188.576 323.375L188.116 324.752C187.291 323.936 188.312 324.126 188.215 323.39Z" fill="white"/>
<path opacity="0.3" d="M190.864 327.804C191.137 327.642 191.718 327.951 191.907 328.605C191.164 328.023 190.64 328.957 190.864 327.804Z" fill="white"/>
<path opacity="0.3" d="M194.934 330.499C195.109 331.416 196.537 330.713 197.622 330.724C196.653 331.864 194.663 330.091 194.358 331.491C195.358 331.836 194.793 330.979 194.934 330.499Z" fill="#E1E1E1"/>
<path opacity="0.3" d="M191.995 324.925L190.154 324.454L191.377 324.553L191.995 324.925Z" fill="white"/>
<path opacity="0.3" d="M195.75 329.195L194.566 329.64L194.451 328.489L195.75 329.195Z" fill="#E1E1E1"/>
<path opacity="0.3" d="M193.637 327.213L193.513 327.003L194.25 326.907L194.395 327.104L193.637 327.213Z" fill="white"/>
<path opacity="0.3" d="M192.977 324.571L191.772 324.263L192.326 324.191L192.977 324.571Z" fill="white"/>
<path opacity="0.3" d="M189.494 318.128L188.614 318.223L188.331 317.795L189.494 318.128Z" fill="white"/>
<path opacity="0.3" d="M172.415 132.843C172.502 132.99 173.454 134.355 172.667 134.225L172.415 132.843Z" fill="white"/>
<path opacity="0.3" d="M193.695 322.814C194.274 323.407 193.673 323.733 193.296 323.814C193.344 323.56 193.264 322.899 193.695 322.814Z" fill="white"/>
<path opacity="0.3" d="M192.851 322.492L192.087 321.923L192.173 321.446L192.851 322.492Z" fill="white"/>
<path opacity="0.3" d="M199.66 330.567L199.986 329.779L199.66 330.567Z" fill="white"/>
<path opacity="0.3" d="M200.309 328.313C200.772 328.663 201.308 328.8 201.53 329.462C201.248 329.034 199.241 329.001 200.309 328.313Z" fill="white"/>
<path d="M205.42 110.409C205.071 107.506 204.937 104.58 205.022 101.657C205.558 99.6351 206.82 97.8805 208.567 96.7267C210.353 95.4504 211.707 93.6613 212.449 91.5974C213.716 92.7762 215.816 91.8186 218.59 90.8023C221.464 89.6332 224.562 89.119 227.661 89.2971C226.545 89.6606 225.45 90.0811 224.378 90.5571C223.932 90.7451 223.552 91.0614 223.286 91.4656C223.021 91.8699 222.882 92.344 222.887 92.8275C224.905 94.3396 227.188 95.4613 229.619 96.1347C228.998 97.0971 228.431 96.5249 227.754 96.2448C227.077 95.9646 226.391 95.7179 226.011 97.1334C225.63 98.549 225.553 99.7572 226.417 99.4446C225.655 101.029 224.764 99.9114 224.301 102C223.93 103.24 224.65 102.587 224.309 103.639C223.889 103.888 223.936 103.633 223.907 103.537C223.878 103.44 223.832 103.411 223.802 103.599C223.684 103.869 223.583 104.146 223.5 104.429C223.332 104.88 223.125 105.315 222.882 105.73C222.744 106.028 222.581 106.314 222.395 106.585C222.207 106.875 222.004 107.156 221.788 107.426C222.119 107.033 222.408 106.605 222.649 106.151L222.823 105.822L222.991 105.723L223.173 105.36C223.3 105.137 223.397 104.899 223.461 104.651C223.521 104.624 223.577 104.591 223.629 104.551L223.672 104.384L223.654 104.593C223.637 104.859 223.634 105.126 223.646 105.392L223.686 105.794L223.773 105.941L223.58 104.467L223.729 104.719C223.844 105.392 224.002 106.056 224.2 106.709C224.645 108.19 225.191 109.638 225.837 111.043L226.522 112.198L226.958 112.932C226.82 113.047 226.663 113.14 226.496 113.205C225.872 113.562 225.23 113.885 224.572 114.172C222.985 114.799 221.452 115.421 219.865 116.047C217.397 117.053 213.778 115.931 212.412 116.88C209.636 115.259 207.249 113.05 205.42 110.409Z" fill="#E1E1E1"/>
<path opacity="0.4" d="M201.136 143.297L201.853 144.744L198.815 142.543L201.136 143.297Z" fill="white"/>
<path opacity="0.4" d="M202.041 142.478C204.357 142.697 200.76 142.328 202.442 143.489C202.073 142.771 201.09 142.502 202.041 142.478Z" fill="white"/>
<path opacity="0.3" d="M214.113 114.398C215.101 115.06 214.917 114.942 213.918 114.881L214.113 114.398Z" fill="white"/>
<path opacity="0.4" d="M192.64 135.68L191.661 136.372L191.982 135.814L192.64 135.68Z" fill="white"/>
<path opacity="0.3" d="M171.819 124.806L171.104 125.37C171.453 125.193 171.315 124.339 171.819 124.806Z" fill="white"/>
<path opacity="0.3" d="M215.016 113.241L215.793 112.781C215.983 112.669 214.942 113.738 213.928 113.657C214.198 113.299 214.493 112.982 214.776 112.645L215.016 113.241Z" fill="white"/>
<path opacity="0.4" d="M193.949 135.445C194.308 136.338 195.655 136.789 194.652 137.013C194.315 136.588 193.62 135.752 193.949 135.445Z" fill="white"/>
<path opacity="0.4" d="M187.246 132.379C187.407 132.378 187.567 132.359 187.724 132.323C187.792 132.318 187.857 132.298 187.915 132.263C187.974 132.229 188.023 132.181 188.06 132.125C188.187 131.908 188.097 131.564 187.927 131.183C187.752 130.518 187.652 129.836 187.628 129.149L188.773 130.456C189.047 130.918 189.184 131.149 189.124 131.382C189.064 131.616 188.266 132.088 187.592 132.77L187.246 132.379Z" fill="white"/>
<path opacity="0.3" d="M217.374 113.434C217.031 114.147 216.583 113.249 215.952 113.764C216.221 112.783 216.265 112.332 217.374 113.434Z" fill="white"/>
<path opacity="0.4" d="M190.967 130.803C192.97 132.027 192.566 133.258 193.688 134.862C193.245 133.112 190.34 131.372 190.967 130.803Z" fill="white"/>
<path opacity="0.4" d="M202.607 135.966L202.28 135.847L202.308 134.555L202.647 134.695L202.607 135.966Z" fill="white"/>
<path opacity="0.4" d="M187.56 127.12L187.062 127.811L186.751 127.429L187.56 127.12Z" fill="white"/>
<path opacity="0.4" d="M193.109 128.289C194.202 127.643 194.39 129.346 195.09 129.952C194.637 129.888 194.211 129.698 193.861 129.404C193.511 129.11 193.25 128.723 193.109 128.289Z" fill="white"/>
<path opacity="0.4" d="M188.104 125.07C187.78 124.524 187.068 125.285 186.645 125.337C187.864 124.617 189.008 124.536 187.122 122.22C187.156 123.759 188.726 123.965 188.867 124.251L189.303 123.312C188.187 125.305 189.374 125.822 187.299 126.056C187.451 125.739 187.893 125.479 188.104 125.07Z" fill="white"/>
<path opacity="0.4" d="M198.925 127.514C199.494 129.19 203.143 129.84 200.091 130.482C199.769 129.51 200.201 128.517 198.925 127.514Z" fill="white"/>
<path opacity="0.4" d="M192.286 125.8C193.458 126.099 193.695 125.591 193.757 124.93C193.819 124.27 194.014 123.786 194.555 123.693C193.816 123.387 193.029 123.209 192.229 123.169C191.471 123.135 191.093 123.359 192.018 124.2C191.265 123.314 191.878 123.008 192.211 122.613C192.544 122.217 192.664 121.75 191.784 120.937C191.851 121.862 192.824 122.449 193.701 122.923C194.608 123.302 195.387 123.934 195.945 124.743C195.053 123.909 194.892 124.26 194.396 124.524C195.198 126.545 197.946 126.536 196.487 127.569L196.531 127.117C194.54 127.302 194.466 127.941 192.286 125.8Z" fill="white"/>
<path opacity="0.3" d="M224.059 110.728C224.605 113.609 223.523 109.061 222.993 111.132C223.598 110.859 223.568 110.14 224.059 110.728Z" fill="white"/>
<path opacity="0.4" d="M203.218 128.576L202.901 128.424L202.838 128.319L202.689 128.067L202.285 127.626L201.486 126.709L201.711 126.803L202.557 127.749L202.994 128.199L203.156 128.471L203.218 128.576Z" fill="white"/>
<path opacity="0.3" d="M224.635 111.124C224.584 110.417 224.766 111.727 224.961 112.151C224.41 111.654 224.671 111.472 224.635 111.124Z" fill="white"/>
<path opacity="0.4" d="M187.948 120.883C188.944 121.031 188.798 120.068 187.982 119.984C188.853 119.157 189.222 120.016 189.491 120.566C188.798 120.068 188.427 121.308 187.948 120.883Z" fill="white"/>
<path opacity="0.4" d="M200.75 124.991L199.492 124.26L200.75 124.991Z" fill="white"/>
<path opacity="0.4" d="M196.064 123.028L195.838 122.935L195.482 122.096C195.345 121.865 195.146 121.53 195.298 121.355L195.49 121.44C195.322 121.539 195.58 121.925 195.687 122.202L196.064 123.028Z" fill="white"/>
<path opacity="0.3" d="M223.422 108.413L223.739 108.083L223.422 108.413Z" fill="white"/>
<path opacity="0.4" d="M191.982 118.639C191.954 119.308 193.274 119.859 192.51 120.198L191.982 118.639Z" fill="white"/>
<path opacity="0.3" d="M224.239 107.873C224.46 108.819 225.162 109.907 224.095 108.922C224.237 108.592 224.287 108.229 224.239 107.873Z" fill="white"/>
<path opacity="0.4" d="M193.543 118.396L193.351 118.311L193.559 117.707L193.73 117.804L193.543 118.396Z" fill="white"/>
<path opacity="0.3" d="M223.515 105.552L223.602 105.699L223.409 104.226L223.483 104.352L223.528 104.665L223.691 105.419C223.856 106.14 224.061 106.852 224.304 107.551C224.033 106.807 223.817 106.044 223.658 105.268C223.587 105.002 223.531 104.733 223.491 104.46L223.416 104.334L223.61 105.807L223.515 105.552Z" fill="white"/>
<path opacity="0.4" d="M194.621 116.626C196.139 114.878 194.356 114.599 196.854 114.313C195.154 114.127 196.343 117.565 194.621 116.626Z" fill="white"/>
<path opacity="0.3" d="M223.423 104.586C223.549 105.379 223.729 106.162 223.964 106.93C223.725 106.163 223.545 105.38 223.423 104.586Z" fill="white"/>
<path opacity="0.4" d="M200.843 116.773L200.968 115.934L200.843 116.773Z" fill="white"/>
<path opacity="0.4" d="M194.963 112.512L195.666 111.927L194.963 112.512Z" fill="white"/>
<path opacity="0.4" d="M202.044 115.496L202.55 114.914L202.044 115.496Z" fill="white"/>
<path opacity="0.4" d="M202.089 112.607C201.711 112.831 201.47 113.285 201.154 113.614L201.691 112.559L202.089 112.607Z" fill="white"/>
<path d="M240.994 79.1711C243.358 78.0856 245.853 79.1336 248.317 80.5117L252.024 82.8843C253.289 83.7155 254.646 84.3973 256.068 84.9159C265.614 93.7301 265.707 105.552 268.342 113.292C268.026 112.987 267.798 112.603 267.682 112.18C267.421 111.739 267.361 111.065 267.213 110.529C267.165 109.987 266.976 109.467 266.665 109.02C266.355 108.572 265.934 108.212 265.443 107.976C265.249 108.673 265.208 109.404 265.324 110.119C265.439 110.833 265.708 111.514 266.112 112.116C266.679 113.311 267.21 114.301 266.385 115.157C266.098 114.052 264.992 111.615 263.578 112.82C263.906 114.95 265.33 118.162 264.472 119.775C264.2 118.122 264.669 115.661 262.856 114.664C261.385 116.153 260.061 117.781 258.902 119.524C257.717 117.815 259.296 115.407 256.834 114.51C254.92 116.067 258.851 118.817 256.413 119.776C255.68 117.721 254.798 115.723 253.772 113.797C252.701 111.684 251.49 109.644 250.147 107.691L248.642 109.459C247.111 106.028 245.368 102.693 243.426 99.4753L237.569 89.2742C236.902 87.9111 235.688 86.1057 234.939 84.5079C234.189 82.9102 233.845 81.4696 235.875 80.9215C236.92 80.5306 237.092 79.7204 237.522 79.1543C237.952 78.5882 238.72 78.3043 240.994 79.1711Z" fill="#E1E1E1"/>
<path opacity="0.4" d="M211.486 86.1929C211.149 86.5339 210.8 86.854 210.496 87.2036L210.603 86.8569L211.486 86.1929Z" fill="white"/>
<path opacity="0.4" d="M213.56 86.2426L212.416 85.5582L212.916 85.2058L213.56 86.2426Z" fill="white"/>
<path d="M198.917 128.314C199.359 127.145 197.424 126.899 196.59 127.024L199.401 126.978L198.917 128.314Z" fill="#E1E1E1"/>
<path d="M196.421 127.266C196.381 127.63 195.917 127.564 195.581 127.763C196.08 127.695 196.023 127.218 196.421 127.266Z" fill="#E1E1E1"/>
<path d="M202.597 129.397L200.365 126.975L202.204 128.637L202.597 129.397Z" fill="#E1E1E1"/>
<path opacity="0.4" d="M216.452 83.7957C215.899 83.8769 215.351 83.9924 214.812 84.1414L215.4 83.1704L216.452 83.7957Z" fill="white"/>
<path d="M194.906 129.069L194.931 129.875L194.906 129.069Z" fill="#E1E1E1"/>
<path d="M203.106 133.602L203.012 130.143L203.405 133.34L203.106 133.602Z" fill="#E1E1E1"/>
<path d="M194.982 133.502L195.154 133.457L195.718 134.455L195.525 134.513L194.982 133.502Z" fill="#E1E1E1"/>
<path opacity="0.4" d="M225.077 79.8584L224.977 79.6905C225.689 79.6948 226.393 79.7325 227.096 79.7702L227.184 79.9171C226.417 79.9167 225.726 79.9 225.077 79.8584Z" fill="white"/>
<path opacity="0.4" d="M230.105 79.7201L228.846 78.6503L230.189 78.9051L230.105 79.7201Z" fill="white"/>
<path d="M196.263 135.947L196.456 135.89L196.61 136.197L196.416 136.254L196.263 135.947Z" fill="#E1E1E1"/>
<path d="M203.175 135.488L203.579 135.022L203.82 135.475L203.175 135.488Z" fill="#E1E1E1"/>
<path d="M200.078 137.971L200.752 137.148L200.66 137.853L200.078 137.971Z" fill="#E1E1E1"/>
<path d="M249.052 134.094C251.002 135.323 254.708 135.542 257.053 137.388C258.058 138.677 258.895 140.087 259.544 141.586C260 142.708 260.274 143.896 260.356 145.104C260.339 147.563 260.596 150.016 261.121 152.419C257.389 152.3 259.546 154.881 259.509 156.207L257.071 155.494C254.355 157.326 254.66 161.426 253.528 163.059C253.27 162.049 253.628 160.165 251.809 160.163C250.655 161.469 251.71 163.056 251.29 164.835C251.112 164.274 250.794 163.767 250.367 163.361C249.939 162.955 249.416 162.664 248.845 162.514C248.275 162.364 247.676 162.361 247.104 162.505C246.532 162.649 246.006 162.935 245.575 163.337C244.954 164.442 245.665 165.496 244.682 165.991C243.54 164.88 246.214 161.4 244.215 161.476C241.479 161.648 244.247 164.973 241.964 165.812C241.789 163.08 242.792 159.652 241.111 157.442C240.112 157.863 239.984 158.987 238.977 159.441C239.031 155.468 238.58 151.17 238.949 147.153C238.945 145.194 239.349 143.256 240.137 141.463C240.925 139.67 242.078 138.06 243.524 136.738C245.281 134.82 247.342 135.757 249.052 134.094Z" fill="#E1E1E1"/>
<path opacity="0.3" d="M245.096 144.261L245.218 143.366L245.301 144.224L245.096 144.261Z" fill="white"/>
<path opacity="0.3" d="M245.416 144.609L245.223 145.293L245.416 144.609Z" fill="white"/>
<path opacity="0.3" d="M252.217 148.893C252.816 148.085 248.871 148.036 250.972 146.794L252.217 148.893Z" fill="white"/>
<path opacity="0.3" d="M245.486 155.876L244.874 155.274L245.663 154.978L245.486 155.876Z" fill="white"/>
<path d="M230.883 166.436L231.369 165.724L231.806 165.551L230.883 166.436Z" fill="#E1E1E1"/>
<path d="M230.718 171.324L230.499 167.513L230.529 170.528L230.718 171.324Z" fill="#E1E1E1"/>
<path d="M233.537 172.775L233.29 173.601L232.088 173.347L233.29 173.601L233.537 172.775Z" fill="#E1E1E1"/>
<path d="M199.227 219.841C197.953 219.176 198.983 221.63 197.532 220.332C198.14 220.114 198.589 219.339 199.227 219.841Z" fill="#E1E1E1"/>
<path d="M202.913 221.602C202.163 220.769 201.236 219.446 200.293 219.578C201.516 218.77 201.856 221.064 202.913 221.602Z" fill="#E1E1E1"/>
<path d="M200.471 229.592L199.332 228.677L199.867 228.957L200.471 229.592Z" fill="#E1E1E1"/>
<path d="M205.609 225.618L206.437 226.773L205.609 225.618Z" fill="#E1E1E1"/>
<path d="M201.756 231.183L202.712 231.837L201.756 231.183Z" fill="#E1E1E1"/>
<path opacity="0.3" d="M233.741 200.485L233.909 200.386C234.005 200.574 234.112 200.755 234.231 200.929L234.043 201.041L233.741 200.485Z" fill="white"/>
<path opacity="0.3" d="M231.868 204.171L231.899 203.841L233.434 202.792L231.868 204.171Z" fill="white"/>
<path d="M207.977 231.474C207.718 230.607 207.417 229.764 207.178 228.885C207.539 229.493 207.888 230.081 208.249 230.689L207.977 231.474Z" fill="#E1E1E1"/>
<path opacity="0.3" d="M232.563 205.631C232.265 206.515 231.682 205.868 231.228 205.342L232.563 205.631Z" fill="white"/>
<path opacity="0.3" d="M245.044 197.571C244.689 197.53 244.337 197.463 243.991 197.372L244.77 197.252L245.044 197.571Z" fill="white"/>
<path opacity="0.3" d="M235.053 207.673L235.209 207.552L235.846 208.196L235.724 208.325L235.053 207.673Z" fill="white"/>
<path opacity="0.3" d="M246.836 197.192L247 197.039L247.862 197.918L247.686 198.051L246.836 197.192Z" fill="white"/>
<path opacity="0.3" d="M241.878 207.691C242.58 209.543 240.773 207.55 240.442 207.519C240.81 206.848 241.079 207.539 241.878 207.691Z" fill="white"/>
<path opacity="0.3" d="M241.005 210.191L239.649 209.915L240.438 209.761L241.005 210.191Z" fill="white"/>
<path opacity="0.3" d="M245.434 208.848C245.241 207.998 245.007 207.173 244.86 206.352C245.184 206.898 245.483 207.401 245.807 207.947L245.434 208.848Z" fill="white"/>
<path d="M265.927 229.267C266.797 229.632 268.599 230.182 268.343 231.042C266.534 231.771 265.982 230.028 264.485 230.232C263.406 229.849 265.317 229.004 265.927 229.267Z" fill="white"/>
<path d="M282.012 213.069L283.494 213.271C282.222 213.087 280.388 214.398 279.098 213.516L283.289 212.542L282.012 213.069Z" fill="#E1E1E1"/>
<path d="M287.515 212.055C287.072 213.366 285.616 212.157 284.471 212.522C285.466 212.262 286.487 212.105 287.515 212.055Z" fill="#E1E1E1"/>
<path opacity="0.3" d="M292.029 235.403C291.63 235.639 291.32 234.83 291.183 234.599C291.703 234.519 291.755 234.941 292.029 235.403Z" fill="white"/>
<path opacity="0.3" d="M238.517 194.515L238.734 193.111L238.694 194.382L238.517 194.515Z" fill="white"/>
<path opacity="0.3" d="M240.302 193.885L240.136 193.558L240.732 193.319L240.302 193.885Z" fill="white"/>
<path opacity="0.3" d="M239.658 200.217L238.645 200.278L238.943 200.016L239.658 200.217Z" fill="white"/>
<path opacity="0.3" d="M252.289 193.799C252.001 194.508 250.635 193.642 250.55 193.211C250.933 193.665 251.574 194.363 252.289 193.799Z" fill="white"/>
<path opacity="0.3" d="M254.56 193.222C254.385 192.928 254.37 192.568 254.271 192.258C254.433 192.531 254.583 192.783 254.913 192.956L254.56 193.222Z" fill="white"/>
<path opacity="0.3" d="M252.682 196.996C252.472 196.836 252.279 196.655 252.106 196.457C254.332 196.955 254 197.208 253.77 198.733C253.381 196.979 252.147 197.482 250.687 196.36C251.617 196.349 251.36 197.351 252.682 196.996Z" fill="white"/>
<path d="M266.801 221.125C270.757 221.621 272.233 223.868 271.748 225.968C271.269 228.747 272.911 232.709 266.935 233.066C264.358 230.875 261.01 227.865 261.595 224.882C261.644 224.275 261.824 223.685 262.124 223.153C262.423 222.622 262.835 222.162 263.33 221.805C263.824 221.448 264.391 221.202 264.99 221.085C265.59 220.967 266.207 220.981 266.801 221.125Z" fill="#E1E1E1"/>
<path d="M296.839 253.993L295.979 253.453L295.328 253.072L294.518 252.616C293.432 251.972 292.396 251.248 291.417 250.452L288.955 248.647L286.515 246.688C285.711 246.002 284.96 245.311 284.244 244.63L280.345 241.265C277.669 238.907 275.481 236.799 273.711 234.869L272.365 233.51L271.749 232.854L271.42 232.539L270.678 231.815L265.198 226.551C258.389 219.861 253.632 214.906 249.092 210.078L247.609 208.489L247.236 207.859C247.01 207.69 246.765 207.55 246.505 207.441C246.012 207.279 245.744 207.211 245.503 207.665C245.592 207.396 245.645 207.117 245.662 206.834L245.744 206.445C246.237 206.607 243.973 204.658 249.138 210.108C256.011 217.384 263.389 224.842 270.974 232.122L271.632 232.753L271.831 233.089L272.398 233.661L273.556 234.847L275.877 237.132C277.444 238.672 279.061 240.153 280.72 241.61L283.197 243.775L283.814 244.288L284.139 244.55L284.264 244.759L284.91 245.37C285.777 246.161 286.665 246.94 287.595 247.694C289.296 249.126 291.688 250.717 292.355 251.315C293.389 252.08 294.474 252.774 295.603 253.392C295.798 253.483 295.985 253.591 296.162 253.713L296.575 253.979L297.419 254.444C298.515 254.76 298.986 255.077 296.839 253.993Z" fill="#E1E1E1"/>
<path d="M291.696 250.678C291.506 250.488 291.299 250.316 291.078 250.164C291.496 250.484 292.321 251.158 291.696 250.678Z" fill="#E1E1E1"/>
<path d="M287.82 247.783L287.098 247.189L287.82 247.783Z" fill="#E1E1E1"/>
<path opacity="0.3" d="M290.607 249.848L291.078 250.165C289.626 249.152 289.509 249.051 288.909 248.613L289.593 249.144C285.638 246.067 289.68 249.291 286.423 246.624C287.76 247.771 289.157 248.847 290.607 249.848Z" fill="white"/>
<path opacity="0.3" d="M287.223 247.256L288.421 248.221L287.223 247.256Z" fill="white"/>
<path opacity="0.3" d="M288.2 248.041C287.399 247.409 286.318 246.545 285.239 245.539L284.397 244.79L283.997 244.403L283.204 243.737L280.123 241.08L282.504 243.131L283.705 244.15L283.997 244.403L284.109 244.592L284.32 244.948C284.482 245.221 284.445 245.158 284.32 244.948L284.004 244.654L283.867 244.423L283.483 244.111L283.996 244.545C284.742 245.323 287.831 247.947 288.349 248.293C292.367 251.19 287.87 247.868 288.2 248.041Z" fill="white"/>
<path opacity="0.3" d="M284.513 244.891L285.18 245.489L285.38 245.682L284.513 244.891Z" fill="white"/>
<path opacity="0.3" d="M284.055 244.454L283.496 243.99C284.614 244.917 279.577 240.638 283.496 243.99C283.1 243.658 283.171 243.729 283.496 243.99L283.997 244.403L284.326 244.719L284.055 244.454Z" fill="white"/>
<path opacity="0.3" d="M280.332 241.241L283.088 243.637L280.332 241.241Z" fill="white"/>
<path opacity="0.3" d="M278.085 239.226C274.796 236.124 278.01 239.1 278.46 239.571L278.085 239.226Z" fill="white"/>
<path opacity="0.3" d="M275.205 236.479L272.185 233.446L275.205 236.479Z" fill="white"/>
<path opacity="0.3" d="M272.585 233.833C270.493 231.697 273.484 234.775 274.626 235.886L272.585 233.833Z" fill="white"/>
<path opacity="0.3" d="M261.159 222.621L256.981 218.401L261.159 222.621Z" fill="white"/>
<path d="M275.681 236.912C274.563 235.843 273.525 234.812 272.496 233.748L271.717 232.961L271.279 232.511L270.279 231.542L268.244 229.598L268.12 229.388L268.449 229.703L269.154 230.364L271.438 232.587L272.809 233.988L273.813 235.01L274.91 236.092L272.609 233.794L271.438 232.587L270.154 231.333L269.766 230.966L269.823 231.301C269.898 231.427 269.784 231.523 269.335 231.817C268.913 232.026 268.461 232.169 267.996 232.24C267.357 232.439 266.689 232.527 266.021 232.5C266.268 231.905 266.564 231.332 266.906 230.786C267.039 230.405 267.139 230.014 267.205 229.616C266.662 229.61 266.119 229.637 265.579 229.699C264.863 229.882 264.104 229.796 263.448 229.456C258.597 232.862 253.953 236.553 249.542 240.51L247.069 242.992C246.165 243.883 245.311 244.823 244.511 245.809C243.626 246.899 242.732 248.023 241.862 249.189L240.596 250.93C240.131 251.55 239.698 252.194 239.3 252.859C235.356 258.97 232.449 265.689 230.694 272.746C231.018 270.377 231.527 268.037 232.218 265.749C232.846 263.595 233.613 261.485 234.514 259.43L239.571 248.389C239.118 248.344 238.535 249.37 237.98 250.491C237.417 251.788 236.691 253.008 235.82 254.122C236.096 253.391 236.456 252.611 236.846 251.785L237.447 250.551L238.006 249.484C238.715 248.265 239.29 246.974 239.723 245.633C239.362 245.025 238.635 245.426 237.788 246.437C237.286 247.054 236.828 247.703 236.416 248.382L235.672 249.616L234.834 251.217C233.712 253.44 232.622 255.955 231.65 258.287L230.95 259.977L230.253 261.721C229.807 262.836 229.408 263.837 229.111 264.58C229.492 263.164 229.88 261.715 230.315 260.295C230.75 258.876 231.188 257.653 231.673 256.318C232.604 253.726 233.733 250.989 234.881 248.524C236.03 246.058 237.092 244.07 238.335 241.86L239.291 240.218L239.976 238.934L241.692 236.276L243.474 233.635L245.027 231.469C246.027 230.141 247.17 228.671 248.148 227.498C249.126 226.324 249.789 225.479 250.724 224.472L251.904 223.208L252.936 222.173C253.877 221.152 254.966 220.279 256.167 219.582C256.315 219.438 256.495 219.331 256.693 219.272C256.819 219.197 256.945 219.123 257.192 219.204L257.716 219.177L257.979 219.192L258.079 219.36L258.303 219.737L258.428 219.947L261.792 223.318L269.003 230.397C271.883 233.146 271.937 233.284 272.904 234.244C276.084 237.496 278.386 239.509 279.187 240.284C279.987 241.058 277.877 239.13 275.455 236.819C274.242 235.636 272.862 234.268 271.583 232.926L264 225.557L270.824 232.269L274.345 235.859C276.538 238.022 278.756 240.085 280.783 241.921L283.723 244.436L285.062 245.686L286.58 247C286.742 247.273 285.871 246.427 284.474 245.126L283.923 244.629L282.839 243.711L280.445 241.638C278.961 240.048 277.26 238.474 275.681 236.912Z" fill="#E1E1E1"/>
<path d="M279.182 248.778C281.514 248.912 283.776 249.62 285.769 250.838L286.412 251.251L286.754 251.588L287.408 252.307C287.749 252.785 288.049 253.29 288.305 253.818C287.297 253.365 286.902 252.124 285.757 251.582L285.967 251.458C284.939 251.017 284.681 249.865 283.303 250.509C283.191 250.32 283.555 250.36 283.723 250.261C282.078 249.265 280.12 248.916 278.232 249.282C275.858 250.686 279.611 250.027 278.765 251.519L277.223 251.551C277.967 251.849 278.033 252.915 278.78 252.644L278.654 252.718C279.141 253.482 279.781 254.136 280.533 254.641C281.321 255.118 282.165 255.495 283.045 255.764C284.117 256.052 285.226 256.18 286.336 256.144L286.483 256.057L287.05 256.487C286.506 256.383 285.681 256.332 284.953 256.253L283.76 256.108C283.541 256.084 283.326 256.041 283.115 255.978L282.128 255.654C281.479 255.447 280.848 255.184 280.243 254.869C279.599 254.548 278.994 254.154 278.439 253.696C277.379 252.908 276.64 251.764 276.358 250.475C276.275 249.475 277.565 248.684 279.182 248.778Z" fill="#E1E1E1"/>
<path d="M278.905 249.51C279.671 249.599 278.98 249.637 278.673 249.647C278.76 249.621 278.84 249.574 278.905 249.51Z" fill="#E1E1E1"/>
<path d="M287.25 254.382L287.003 254.443L287.096 254.361L287.25 254.382Z" fill="#E1E1E1"/>
<path d="M287.062 254.975L286.782 255.027L286.929 254.799L287.062 254.975Z" fill="#E1E1E1"/>
<path d="M287.619 254.335L288.062 254.698L287.619 254.335Z" fill="#E1E1E1"/>
<path d="M300.02 255.279L300.041 255.267L300.075 255.275L299.874 255.224L300.075 255.275L300.041 255.267L300.02 255.279Z" fill="#E1E1E1"/>
<path d="M299.029 255.043L299.422 255.179L299.768 255.285C299.514 255.229 299.267 255.148 299.029 255.043Z" fill="#E1E1E1"/>
</g>
</svg>
