<svg width="288" height="241" viewBox="0 0 288 241" fill="none" xmlns="http://www.w3.org/2000/svg">
<g opacity="0.85">
<path d="M196.432 185.41C191.277 191.287 188.712 199.066 180.039 202.065C170.267 204.381 159.102 201.65 151.577 204.503C149.672 204.162 154.02 198.602 148.89 198.358C146.447 198.358 144.639 201.382 142.831 198.358C144.15 197.895 144.321 195.92 145.03 195.31C141.952 193.482 140.144 189.483 135.893 190.434C138.067 188.946 137.92 186.874 137.676 184.728C137.1 182.622 137.336 180.378 138.336 178.437C137.456 175.998 134.06 178.437 132.888 176.266C133.816 175.242 135.966 175.315 137.774 174.828C139.582 174.34 140.608 173.413 139.826 170.926C139.191 169.878 137.163 169.634 137.383 168.268C139.46 166.83 141.952 170.024 142.684 166.318C142.953 164.781 139.997 163.879 142.684 162.782C145.128 162.782 146.3 160.782 147.962 158.759C149.714 156.563 151.859 154.711 154.289 153.296C154.973 152.541 155.291 152.077 155.633 151.638C156.134 151.111 156.682 150.63 157.27 150.2C158.516 149.249 157.27 150.541 157.001 151.273C161.402 147.741 165.422 143.761 168.996 139.398C168.505 140.199 168.166 141.083 167.995 142.007C168.508 141.665 169.314 141.397 170.071 140.958C170.994 140.518 171.823 139.906 172.514 139.154C174.078 137.105 172.832 135.789 174.958 133.862C175.862 133.009 175.251 134.374 174.958 135.837C174.796 136.491 174.73 137.164 174.762 137.837C174.762 138.325 175.202 138.544 175.862 138.203C177.236 137.729 178.711 137.628 180.137 137.91C180.996 138.041 181.874 137.922 182.667 137.567C183.46 137.213 184.134 136.638 184.608 135.911C188.37 136.886 187.466 140.787 188.737 143.226C190.764 143.226 192.206 140.934 194.356 142.324C197.434 152.077 200.805 155.296 203.762 165.367C199.022 171.511 200.928 183.143 196.432 185.41Z" fill="#8492C7"/>
<path d="M132.179 240.177C131.08 240.503 129.918 240.555 128.794 240.33C127.67 240.104 126.618 239.608 125.729 238.885C123.702 237.308 121.909 235.453 120.404 233.374C122.529 230.619 121.381 224.181 126.853 225.181C130.69 225.728 134.36 227.11 137.603 229.229C139.46 233.423 138.8 239.324 132.179 240.177Z" fill="#8492C7"/>
<path d="M152.164 230.594L151.308 230.935L152.164 230.594Z" fill="white"/>
<path d="M219.324 199.992L220.545 201.089L219.08 200.553L219.324 199.992Z" fill="white"/>
<path d="M217.101 204.04L218.005 204.357L217.614 205.186L217.101 204.04Z" fill="white"/>
<path d="M214.438 200.821L214.34 201.772L213.461 201.431L214.438 200.821Z" fill="white"/>
<path d="M106.038 139.422C105.104 140.074 104.03 140.499 102.902 140.665C101.773 140.83 100.622 140.73 99.5396 140.373C98.5023 140.047 97.4016 139.974 96.3303 140.16C95.2589 140.347 94.2482 140.788 93.383 141.446C92.2103 139.812 88.6923 139.519 85.5651 139.129C82.438 138.739 79.8483 138.422 81.0943 137.715C81.7773 137.661 82.4551 137.555 83.122 137.398C84.1726 136.91 80.679 137.398 78.9688 137.398C82.9022 136.886 82.1937 137.105 78.9688 137.398C80.4347 137.398 82.438 137.178 83.1709 137.227C85.9805 137.593 78.0404 137.934 78.9688 138.349C81.0936 138.11 83.2343 138.045 85.3697 138.154C89.8161 138.934 78.6268 139.568 83.4152 140.373C85.5163 140.763 86.0782 139.788 89.4741 140.08C95.0443 140.543 94.0915 141.787 94.1892 142.665C96.9743 143.275 97.0232 142.348 98.0493 142.202C102.374 143.226 109.092 145.201 108.774 146.786C111.486 146.786 113.172 145.298 116.959 146.079C123.628 147.225 120.868 148.517 125.607 150.053C127.586 149.59 122.871 148.444 126.145 148.517C127.904 148.517 126.584 149.419 128.588 149.322C128.588 148.688 127.024 147.42 130.445 147.688C134.573 148.127 133.621 149.761 137.114 150.126C137.432 149.468 136.479 148.688 134.671 147.981C138.385 146.566 143.906 148.956 146.129 149.809C147.546 149.419 143.491 147.371 147.815 148.103C150.258 148.444 149.476 149.639 152.066 149.931C153.776 148.932 140.999 144.713 151.773 146.127C152.983 146.644 154.293 146.886 155.608 146.835C151.944 145.055 149.818 143.226 152.701 142.299C155.584 141.373 159.713 145.079 161.301 143.665C158.222 142.397 152.53 141.373 151.993 139.836C151.699 138.788 160.983 140.665 155.633 138.812C150.991 138.007 152.603 137.739 153.898 137.374L154.778 137.081C155.144 137.081 155.34 136.886 155.217 136.788C153.619 136.368 151.982 136.115 150.331 136.032C150.087 135.837 150.16 135.764 150.331 135.715H151.651C152.994 135.715 154.387 135.715 154.24 135.325L148.181 134.838C147.027 134.792 145.884 134.586 144.785 134.228C144.541 134.082 144.785 134.009 145.201 133.96L147.913 133.789C149.794 133.789 151.235 133.594 149.256 133.35C147.277 133.106 145.909 133.35 144.37 133.35H140.412C138.262 133.228 136.308 133.35 133.938 133.521C131.031 133.862 134.182 133.521 132.179 133.984C130.176 134.447 127.708 134.374 125.827 134.935C123.946 135.496 128.783 135.106 126.096 136.057C124.972 135.723 123.775 135.723 122.651 136.057C121.259 136.374 119.744 136.862 118.473 137.057L117.618 137.788L116.837 138.642C114.137 138.239 111.382 138.405 108.75 139.129C108.384 139.617 108.139 140.251 107.797 140.812C106.576 140.641 107.577 139.422 106.038 139.422Z" fill="#8492C7"/>
<path d="M166.431 170.341C164.599 170.389 162.777 170.057 161.081 169.366C159.52 168.602 157.779 168.282 156.048 168.439C157.294 168.171 155.12 167.147 152.579 166.22C150.596 165.709 148.707 164.886 146.984 163.782C148.597 163.904 154.558 163.977 151.65 162.587C149.207 161.27 143.637 159.831 147.082 159.051C152.896 159.295 154.778 156.344 154.973 154.759C159.859 155.71 164.745 155.003 165.771 153.906C166.627 151.102 163.328 147.81 155.999 145.908C157.758 145.591 161.227 147.127 163.328 146.054C157.636 144.933 160.226 144.299 162.986 143.616C165.747 142.933 168.63 142.007 163.182 140.958C165.566 141.625 168.036 141.937 170.511 141.885C173.174 140.422 172.172 138.276 179.331 137.325L181.163 137.593C185.243 137.032 183.801 135.496 184.143 134.472C189.665 134.472 183.02 137.764 190.691 136.91C195.577 136.423 200.634 134.228 199.193 133.106C200.61 133.96 199.193 135.13 200.683 135.984C205.178 135.74 212.043 134.496 212.019 132.741C212.508 133.765 207.939 136.13 213.802 136.374C217.418 136.374 216.588 134.204 220.228 133.935C220.668 134.667 216.539 135.935 219.666 136.642C221.474 136.252 225.187 135.13 226.482 135.959C231.368 138.52 221.987 144.128 232.639 143.884C228.924 147.235 224.765 150.058 220.277 152.272C216.411 154.15 212.659 156.25 209.038 158.563C212.679 159.344 212.19 156.71 215.659 158.173C214.316 159.588 209.918 161.197 212.874 162.538L217.76 161.977C212.874 164.416 212.508 166.854 211.115 169.122C209.723 171.389 207.182 173.291 198.387 173.56C190.751 173.782 183.112 173.292 175.568 172.097C174.005 171.511 166.602 170.829 166.431 170.341Z" fill="#8492C7"/>
<path opacity="0.3" d="M209.6 137.569H209.161V136.886L209.649 136.862L209.6 137.569Z" fill="white"/>
<path d="M147.571 125.157C141.008 126.175 134.375 126.681 127.733 126.669C119.849 125.582 112.035 124.043 104.328 122.06C106.772 121.918 109.183 121.425 111.486 120.597C111.022 119.256 104.695 119.183 104.45 118.159C107.941 118.027 111.411 117.553 114.809 116.745C117.741 115.818 111.853 116.208 109.923 116.208C114.516 114.818 114.809 116.354 120.135 114.526C123.14 113.38 117.447 114.038 118.303 113.233C120.746 112.77 122.065 113.745 127.024 112.233C133.914 110.112 125.045 110.868 128.612 109.429C131.886 109.429 130.371 110.697 133.865 110.551C137.803 109.137 141.91 108.244 146.08 107.893C150.6 107.259 154.631 106.674 155.022 105.26C153.581 109.088 183.044 100.773 179.062 105.089L181.114 103.211C183.85 105.65 191.497 107.04 185.365 111.551C182.653 116.086 170.365 120.622 159.737 123.987C155.657 124.059 151.589 124.45 147.571 125.157Z" fill="#8492C7"/>
<path d="M146.105 96.652C138.58 97.6762 129.736 99.7488 123.335 100.627C121.312 101.135 119.202 101.194 117.154 100.797C114.998 100.402 112.778 100.528 110.68 101.163L114.271 100.237C112.977 99.6757 114.271 98.2614 112.024 98.1638C114.032 96.9676 116.193 96.0489 118.449 95.4328C125.216 92.653 116.788 94.7744 118.767 93.5552C121.625 92.7505 120.306 94.1404 124.581 92.5067C128.857 90.8729 125.412 90.9949 130.078 89.3855C132.608 89.0488 135.025 88.1306 137.139 86.7032C146.593 83.6796 152.261 84.5331 161.569 80.656C162.767 80.8267 157.636 83.0944 161.96 82.2654C162.754 81.8553 163.57 81.4889 164.403 81.1681C170.878 80.1195 161.643 85.2646 172.441 82.1434C171.464 84.0698 171.977 86.6545 168.337 88.5321C160.299 91.6045 154.9 94.0429 146.105 96.652Z" fill="#8492C7"/>
<path opacity="0.3" d="M157.709 85.289L158.833 85.5322L157.563 85.4349L157.709 85.289Z" fill="white"/>
<path d="M3.42883 141.69L5.87192 140.739L3.42883 141.69Z" fill="#8492C7"/>
<path d="M1.15951 142.592L0.619202 142.812L1.15951 142.592Z" fill="#8492C7"/>
<path d="M121.552 88.2151C114.223 91.3606 107.602 93.5552 102.398 95.9693C98.3032 97.6447 94.3065 99.5497 90.427 101.675C87.8373 103.114 85.6874 104.723 81.6074 107.259L88.106 104.114C88.106 104.699 89.9628 104.601 86.2493 107.186C88.1758 105.873 90.2608 104.808 92.4547 104.016C93.2854 104.016 91.111 105.479 92.4547 105.065C94.116 104.138 93.8961 103.577 95.8017 102.626C98.2448 101.553 95.2887 103.797 97.1699 103.138C98.1959 101.407 104.499 98.2614 108.066 96.2863C109.434 96.0668 106.625 97.7737 106.502 98.3345C110.069 96.4082 108.946 95.8961 111.975 94.2136C114.418 92.8969 111.682 95.1158 114.1 93.7991C117.96 91.6776 118.009 90.2633 121.723 88.9222C122.724 88.5321 120.306 90.1171 122.285 89.1661C122.969 88.4345 125.803 86.557 125.436 86.4595C127.144 85.5562 128.897 84.7422 130.689 84.021C132.424 82.875 129.443 84.021 131.349 82.8993C133.254 81.7776 137.798 79.7782 137.407 79.7538C137.682 79.5884 137.968 79.4417 138.263 79.3148C138.653 79.3148 139.582 78.8272 142.733 77.5104C139.631 78.9491 139.191 79.2905 139.435 79.3148C139.679 79.3392 140.608 79.3149 140.144 79.5587C136.846 81.3631 129.345 84.8988 121.552 88.2151Z" fill="#8492C7"/>
<path opacity="0.3" d="M122.065 87.4591L121.796 87.581L120.819 87.898L121.137 87.7517L122.065 87.4591Z" fill="white"/>
<path opacity="0.3" d="M117.863 90.3853L119.329 89.6293L118.351 90.0195L117.863 90.3853Z" fill="white"/>
<path opacity="0.3" d="M115.811 91.385C117.643 90.5315 115.029 92.1653 117.105 90.7266C116.657 90.9114 116.224 91.1316 115.811 91.385Z" fill="white"/>
<path d="M214.633 172.609C214.166 172.815 213.73 173.086 213.338 173.413C213.147 173.588 212.967 173.776 212.801 173.974C212.91 174.203 213.05 174.417 213.216 174.608C214.063 175.697 215.039 176.68 216.123 177.534C217.382 178.561 218.849 179.301 220.423 179.704C220.815 179.807 221.216 179.872 221.62 179.9H222.598L246.784 183.947C247.157 183.804 247.463 183.525 247.639 183.167L249.178 183.752C252.428 183.557 252.77 181.484 253.405 180.509L255.994 182.021C259.879 179.583 265.058 176.681 265.62 172.56C267.404 172.974 266.573 174.584 266.011 175.827C265.449 177.071 265.132 178.046 268.161 177.388C270.36 176.803 269.236 174.633 271.117 173.486C272.29 173.486 274.391 173.121 275.197 174.316C275.954 173.56 278.129 172.194 279.082 171.389L278.593 173.584C281.036 172.365 281.647 170.146 283.626 168.341C283.626 168.878 282.282 170.438 282.771 171.121L285.336 169.853C282.404 173.17 282.893 176.266 282.893 179.29C283.859 179.203 284.796 178.91 285.639 178.431C286.482 177.951 287.212 177.296 287.779 176.51C286.68 179.168 282.893 181.143 282.404 183.411C282.209 184.362 284.603 183.557 285.336 183.021C283.785 184.949 281.977 186.655 279.961 188.093C279.545 188.363 279.103 188.592 278.642 188.775C278.437 188.867 278.224 188.94 278.007 188.995H277.689H277.518L225.016 180.217C224.243 180.278 223.465 180.161 222.744 179.875C221.238 179.126 219.88 178.11 218.737 176.876L216.905 175.096L216.441 174.681L216.221 174.462L216.881 173.657C217.663 172.316 215.586 172.438 214.633 172.609Z" fill="#8492C7"/>
<path opacity="0.3" d="M104.157 97.7249L103.937 97.8224L103.326 98.2857L103.546 98.2125L104.157 97.7249Z" fill="white"/>
<path opacity="0.3" d="M213.9 174.194L214.364 174.754L213.9 174.194Z" fill="white"/>
<path opacity="0.3" d="M215.977 176.949C215.024 176.144 216.246 176.949 215.439 176.266C214.926 176.022 215.439 176.535 215.977 176.949Z" fill="white"/>
<path opacity="0.3" d="M217.516 178.144L216.856 177.656C217.015 177.831 217.187 177.994 217.369 178.144H217.516Z" fill="white"/>
<path opacity="0.3" d="M216.368 177.534C217.076 178.142 216.979 177.85 216.539 177.534C216.539 177.607 216.172 177.364 216.368 177.534Z" fill="white"/>
<path opacity="0.3" d="M218.224 178.51H218.053C218.949 179.017 219.89 179.442 220.863 179.778C220.112 179.529 219.403 179.167 218.762 178.705C218.42 178.534 219.128 179.07 218.224 178.51Z" fill="white"/>
<path opacity="0.3" d="M222.283 179.949L221.792 179.753L222.283 179.949Z" fill="white"/>
<path opacity="0.3" d="M248.273 184.243L248.131 184.202L247.835 184.118C249.691 184.588 251.645 184.503 253.454 183.874C255.344 182.886 257.345 182.125 259.415 181.606C258.034 182.114 259.994 181.902 259.668 182.399C259.98 182.292 260.262 182.244 260.527 182.236C261.19 181.99 259.464 181.774 260.441 181.216L260.954 181.631C263.397 180.997 261.931 178.949 263.837 178.607C265.156 179.241 264.032 180.582 263.275 181.436C262.518 182.289 262.273 182.85 265.474 182.289C262.988 183.503 262.067 182.191 260.527 182.236C260.378 182.291 260.108 182.348 259.659 182.411C259.662 182.407 259.665 182.403 259.668 182.399C259.278 182.533 258.843 182.76 258.34 183.118C259.171 184.167 262.347 182.021 261.443 183.265C260.539 184.508 258.609 182.826 257.265 183.752C259.708 183.508 257.387 185.069 259.708 184.435L259.513 183.777C261.156 185.064 257.272 184.884 257.215 185.344C257.636 185.388 257.898 185.654 257.583 185.654C257.311 185.524 257.204 185.424 257.215 185.344C257.08 185.33 256.93 185.339 256.776 185.386C257.143 185.727 257.265 185.727 257.094 185.776H256.825L232.394 181.599L223.062 180.046H223.306L232.394 181.599L248.273 184.243Z" fill="white"/>
<path opacity="0.3" d="M223.624 180.265L222.695 180.07C223.013 180.192 223.917 180.289 223.624 180.265Z" fill="white"/>
<path opacity="0.3" d="M220.864 179.656C221.478 179.876 220.594 179.656 220.668 179.656C220.741 179.656 220.643 179.582 220.864 179.656Z" fill="white"/>
<path opacity="0.3" d="M224.576 180.29H224.723H224.161H224.503H224.674L224.699 180.265L272.998 188.337H273.023V188.288L272.949 188.337L224.699 180.265H224.674L224.65 180.29H224.576Z" fill="white"/>
<path opacity="0.3" d="M223.306 180.094C222.888 180.101 222.47 180.06 222.06 179.973C222.471 180.049 222.888 180.089 223.306 180.094Z" fill="white"/>
<path opacity="0.3" d="M220.301 179.631C220.595 179.73 220.898 179.803 221.205 179.85C220.898 179.803 220.595 179.73 220.301 179.631Z" fill="#8492C7"/>
<path opacity="0.3" d="M222.378 179.997H221.669C221.905 180.014 222.142 180.014 222.378 179.997Z" fill="#8492C7"/>
<path d="M95.7528 106.064C91.0312 108.028 86.1189 109.499 81.0943 110.453C76.8513 111.133 72.5649 111.508 68.2681 111.575C66.6822 109.465 65.825 106.898 65.825 104.26C65.7646 102.629 65.8628 100.995 66.1182 99.383L66.2403 98.7002V98.3588V97.8224C66.2403 97.1152 66.1182 96.4325 66.0693 95.7254V93.604C66.0693 92.8237 66.0693 92.0434 66.0693 91.1655C66.509 90.4096 67.1443 90.4096 67.8772 90.7998C68.6524 91.329 69.3799 91.9245 70.0515 92.5798C71.1327 90.7962 71.5561 88.6919 71.2486 86.63C71.0427 84.2471 70.5506 81.8975 69.7828 79.6318C71.7372 85.8741 76.9166 86.8251 80.3613 89.2392C81.7783 88.6296 81.9982 88.1419 81.705 87.069C81.4119 85.9961 80.9232 84.9719 81.3141 84.0453C82.1628 85.0122 82.7513 86.1786 83.0243 87.4348C83.3175 88.3614 83.5862 89.2879 84.6856 89.6781C85.6628 88.9953 84.2947 88.0199 85.5407 87.5322C89.8161 89.2391 91.7705 89.9707 93.6028 93.5064C95.6062 93.3113 97.0232 91.4094 97.5362 91.068C96.2902 94.1648 99.9793 95.9448 102.691 97.4079L104.89 96.2862C103.913 98.1394 106.209 99.5781 107.748 100.163C109.287 100.749 109.703 100.627 104.914 102.48L95.7528 106.064Z" fill="#8492C7"/>
<path opacity="0.3" d="M221.816 179.924C221.536 179.909 221.258 179.868 220.985 179.802C221.164 179.825 221.344 179.825 221.523 179.802L221.816 179.924Z" fill="#8492C7"/>
<path opacity="0.3" d="M275.197 187.117C275.512 186.798 275.753 186.415 275.905 185.994C276.057 185.573 276.115 185.125 276.077 184.679C276.077 184.142 276.077 183.704 277.714 181.387C277.86 181.614 278.06 181.8 278.297 181.929C278.534 182.058 278.8 182.125 279.069 182.125C279.339 182.125 279.605 182.058 279.842 181.929C280.079 181.8 280.279 181.614 280.425 181.387L278.202 180.753L278.837 180.412C277.078 181.607 276.858 179.314 274.098 180.997L274.44 181.314C272.143 180.851 275.539 179.997 275.832 179.29L275.539 179.973C277.762 179.412 276.345 178.095 278.74 176.9C277.103 176.632 275.344 176.193 274.367 177.437C275.27 176.413 277.762 173.389 278.495 174.072C276.345 175.437 278.202 174.974 278.911 177.095C280.401 177.095 280.987 175.364 279.888 175.072C281.842 176.388 281.476 177.51 281.378 179.631H281.134C280.205 180.704 282.649 180.802 283.015 179.924C282.087 180.997 281.451 180.655 280.987 179.924C282.136 181.119 281.207 183.435 280.377 184.801C279.546 186.166 278.886 186.971 280.694 186.239C280.322 186.607 279.879 186.894 279.391 187.082C278.904 187.271 278.383 187.358 277.86 187.337C276.787 187.314 275.716 187.454 274.684 187.751C274.196 187.605 275.148 187.532 275.197 187.117Z" fill="white"/>
<path opacity="0.3" d="M272.656 187.459C270.629 187.75 274.391 187.167 273.658 187.848C273.12 187.823 273.829 187.41 272.656 187.459Z" fill="white"/>
<path opacity="0.3" d="M272.29 185.971C271.02 186.239 271.948 185.752 272.437 185.386C272.73 185.8 271.875 186.898 271.972 187.312C269.725 187.239 272.485 186.532 272.29 185.971Z" fill="white"/>
<path opacity="0.3" d="M249.789 184.386C250.351 184.386 250.473 184.386 250.498 184.386C250.522 184.386 250.498 184.386 250.498 184.386L222.915 179.778L250.473 184.386H250.644C250.644 184.386 250.693 184.459 249.789 184.386Z" fill="#8492C7"/>
<path opacity="0.3" d="M252.892 184.678H251.744C252.017 184.645 252.287 184.588 252.55 184.508L252.892 184.678Z" fill="#8492C7"/>
<path opacity="0.3" d="M273.829 185.679C273.463 185.8 275.466 186.386 273.341 186.703C273.414 186.264 272.559 185.996 273.829 185.679Z" fill="white"/>
<path opacity="0.3" d="M275.393 186.142C276.639 185.435 276.174 186.532 277.127 186.678C275.319 186.922 276.419 186.191 275.393 186.142Z" fill="#8492C7"/>
<path opacity="0.3" d="M258.975 184.874L259.073 185.265L259.221 185.143L258.975 184.874Z" fill="white"/>
<path opacity="0.3" d="M280.646 184.167L280.768 184.923H280.255L280.646 184.167Z" fill="#8492C7"/>
<path opacity="0.3" d="M279.399 184.606L278.495 184.898L278.813 184.289L279.399 184.606Z" fill="#8492C7"/>
<path opacity="0.3" d="M272.779 183.63L272.143 182.46L273.414 183.362C274.977 182.362 274.416 184.825 272.779 183.63Z" fill="white"/>
<path opacity="0.3" d="M270.775 183.045C270.164 182.314 271.313 183.484 270.971 184.021C271.239 183.63 269.432 183.582 270.775 183.045Z" fill="white"/>
<path opacity="0.3" d="M262.224 183.729L262.765 183.387L262.224 183.729Z" fill="white"/>
<path opacity="0.3" d="M275.295 183.216C275.718 182.928 276.126 182.619 276.516 182.289C276.126 182.619 275.718 182.928 275.295 183.216Z" fill="white"/>
<path opacity="0.3" d="M269.725 181.533L269.896 181.216L270.849 182.314C269.725 182.606 270.409 181.826 269.725 181.533Z" fill="white"/>
<path opacity="0.3" d="M274.88 181.509C274.88 181.192 275.442 180.851 276.101 181.021C275.222 181.363 275.759 182.289 274.88 181.509Z" fill="white"/>
<path opacity="0.3" d="M279.277 179.387C280.157 179.704 280.279 178.12 280.841 177.193C281.329 178.607 278.789 179.412 279.839 180.387C280.645 179.704 279.619 179.753 279.277 179.387Z" fill="#8492C7"/>
<path opacity="0.3" d="M272.974 179.07L271.63 180.412L272.339 179.412L272.974 179.07Z" fill="white"/>
<path opacity="0.3" d="M278.569 178.022L278.349 179.266L277.298 178.778L278.569 178.022Z" fill="#8492C7"/>
<path opacity="0.3" d="M275.784 178.827H275.539L275.832 178.144L276.077 178.119L275.784 178.827Z" fill="white"/>
<path opacity="0.3" d="M273.17 178.046L272.29 178.924L272.51 178.412L273.17 178.046Z" fill="white"/>
<path opacity="0.3" d="M265.84 177.754L265.474 178.558L264.961 178.583L265.84 177.754Z" fill="white"/>
<path opacity="0.3" d="M97.4142 97.9931C97.5852 97.9931 99.2465 97.8712 98.7334 98.4808L97.4142 97.9931Z" fill="white"/>
<path opacity="0.3" d="M272.021 176.534C272.827 176.339 272.803 177.022 272.681 177.388C272.485 177.217 271.875 176.949 272.021 176.534Z" fill="white"/>
<path opacity="0.3" d="M271.313 177.095L270.433 177.46L270.067 177.144L271.313 177.095Z" fill="white"/>
<path opacity="0.3" d="M281.745 175.364L281.232 174.681L281.745 175.364Z" fill="white"/>
<path opacity="0.3" d="M280.132 173.657C280.67 173.438 281.06 173.048 281.745 173.194C281.231 173.218 280.181 174.925 280.132 173.657Z" fill="white"/>
<path d="M94.8976 58.2225C92.2175 57.042 89.6289 55.6645 87.153 54.1016C85.6835 52.6099 84.8141 50.6314 84.7099 48.542C84.5196 46.3572 83.6674 44.282 82.2668 42.5923C83.9281 42.1046 84.1724 39.8125 84.7099 36.9108C85.1659 33.8467 86.301 30.9227 88.0325 28.3519C87.7777 29.4953 87.582 30.651 87.4462 31.8145C87.381 32.2936 87.46 32.7812 87.6732 33.2153C87.8863 33.6495 88.224 34.0107 88.6433 34.2529C90.974 33.2905 93.1037 31.901 94.922 30.1563C95.4351 31.1804 94.6533 31.3756 94.0669 31.8145C93.4806 32.2534 92.9187 32.7167 93.9448 33.7652C94.9709 34.8137 95.9725 35.4965 96.1436 34.5942C97.1208 36.0573 95.7038 36.2524 97.2674 37.7154C98.1469 38.6664 97.9514 37.7154 98.6844 38.5445C98.6844 39.0322 98.4889 38.8615 98.3912 38.8371C98.2935 38.8127 98.2446 38.8371 98.3912 38.959C98.5641 39.198 98.7518 39.426 98.9531 39.6418C99.2557 40.0163 99.5254 40.416 99.7593 40.8366C99.9456 41.1071 100.109 41.3926 100.248 41.6901C100.402 41.9999 100.541 42.3173 100.663 42.6411C100.493 42.1559 100.272 41.69 100.004 41.2512L99.8082 40.9341V40.7391L99.5883 40.3977C99.4615 40.1748 99.3054 39.9697 99.1241 39.7881C99.1316 39.7233 99.1316 39.6579 99.1241 39.5931L99.002 39.4711L99.173 39.5931C99.393 39.7439 99.6214 39.8823 99.857 40.0075L100.223 40.1782H100.395L99.0264 39.5931H99.3196C99.9576 39.8368 100.61 40.0404 101.274 40.2027C102.776 40.5761 104.303 40.8449 105.843 41.0073H107.186H108.041C108.07 41.185 108.07 41.3661 108.041 41.5438C108.032 42.2612 107.983 42.9775 107.895 43.6896C107.626 45.3721 107.382 47.0058 107.113 48.6883C106.722 51.3218 103.913 53.8578 104.035 55.5159C101.224 57.0741 98.1049 57.9979 94.8976 58.2225Z" fill="#8492C7"/>
<path opacity="0.4" d="M121.063 78.6565L122.675 78.7784L119.231 80.2658L121.063 78.6565Z" fill="white"/>
<path opacity="0.4" d="M120.819 77.4616C122.187 75.584 120.037 78.4857 121.894 77.6323C121.088 77.5835 120.355 78.2907 120.819 77.4616Z" fill="white"/>
<path opacity="0.3" d="M102.765 52.7848C103.839 52.2727 103.644 52.3703 103.082 53.1994L102.765 52.7848Z" fill="white"/>
<path opacity="0.4" d="M110.167 82.0702L110.265 83.265L109.947 82.7042L110.167 82.0702Z" fill="white"/>
<path opacity="0.3" d="M90.1825 94.4086L90.3047 95.3108C90.3291 94.9207 89.5229 94.6037 90.1825 94.4086Z" fill="white"/>
<path opacity="0.3" d="M102.227 51.4193V50.5171C102.227 50.2977 102.618 51.7363 102.032 52.5654C101.861 52.1509 101.738 51.7364 101.592 51.3218L102.227 51.4193Z" fill="white"/>
<path opacity="0.4" d="M110.631 80.8266C111.584 80.9729 112.659 80.0463 112.341 81.0217C111.804 81.0949 110.729 81.2655 110.631 80.8266Z" fill="white"/>
<path opacity="0.4" d="M104.572 85.0206C104.653 84.8818 104.719 84.7347 104.768 84.5817C104.798 84.5211 104.814 84.4544 104.814 84.3867C104.814 84.319 104.798 84.2522 104.768 84.1916C104.646 83.9721 104.304 83.8746 103.888 83.8258C103.226 83.6367 102.587 83.375 101.983 83.0455L103.693 82.7285C104.23 82.7285 104.499 82.7285 104.67 82.8992C104.841 83.0699 104.841 83.9966 105.085 84.9232L104.572 85.0206Z" fill="white"/>
<path opacity="0.3" d="M103.595 49.493C104.035 50.1514 103.033 50.0781 103.155 50.8828C102.447 50.1513 102.08 49.8831 103.595 49.493Z" fill="white"/>
<path opacity="0.4" d="M105.11 81.0217C107.187 79.9244 108.042 80.8997 109.996 80.7534C108.262 80.2413 105.281 81.8507 105.11 81.0217Z" fill="white"/>
<path opacity="0.4" d="M115.493 73.6577L115.224 73.8772L114.125 73.1944L114.418 72.975L115.493 73.6577Z" fill="white"/>
<path opacity="0.4" d="M100.199 82.0702L100.541 82.8505L100.053 82.9237L100.199 82.0702Z" fill="white"/>
<path opacity="0.4" d="M104.035 77.9006C104.035 76.6326 105.598 77.3397 106.478 77.0471C106.192 77.4035 105.811 77.6724 105.379 77.8233C104.947 77.9742 104.481 78.001 104.035 77.9006Z" fill="white"/>
<path opacity="0.4" d="M98.7089 80.5584C98.0737 80.5584 98.3669 81.5582 98.1959 81.9484C98.1959 80.5341 98.7089 79.5099 95.7528 79.9488C97.0965 80.7047 98.0737 79.4611 98.3913 79.4855L97.805 78.6321C98.9532 80.6072 100.004 79.8513 99.1487 81.7532C98.9532 81.4606 98.9532 80.9486 98.7089 80.5584Z" fill="white"/>
<path opacity="0.4" d="M106.331 72.5117C108.066 72.8774 110.485 70.0732 109.483 73.0237C108.481 72.8042 107.846 71.9264 106.331 72.5117Z" fill="white"/>
<path opacity="0.4" d="M101.47 77.3397C102.325 76.4862 102.007 76.023 101.47 75.6328C100.932 75.2427 100.615 74.8281 100.81 74.3161C100.169 74.7953 99.6153 75.3809 99.1731 76.0473C98.7578 76.6813 98.7578 77.1202 99.9549 76.7545C98.8066 76.9496 98.8555 76.2668 98.6845 75.7791C98.5135 75.2914 98.1714 74.95 97.0232 75.2914C97.8538 75.7059 98.8555 75.1695 99.7106 74.6574C100.5 74.0716 101.441 73.7246 102.422 73.6577C101.25 73.9991 101.47 74.3161 101.445 74.8769C103.595 75.2183 104.988 72.853 105.134 74.6331L104.768 74.3648C103.913 76.1692 104.426 76.5594 101.47 77.3397Z" fill="white"/>
<path opacity="0.3" d="M104.67 42.3728C107.431 43.3725 102.96 41.9826 104.475 43.4944C104.548 42.836 103.913 42.4947 104.67 42.3728Z" fill="white"/>
<path opacity="0.4" d="M109.434 69.3661L109.141 69.5611H109.019H108.726L108.139 69.6831L106.942 69.9025L107.138 69.7562L108.384 69.5124L108.994 69.3661H109.312H109.434Z" fill="white"/>
<path opacity="0.3" d="M105.305 42.0801C104.67 41.7631 105.892 42.2752 106.356 42.324C105.647 42.5434 105.623 42.2264 105.305 42.0801Z" fill="white"/>
<path opacity="0.4" d="M95.0199 78.5589C95.6551 77.7786 94.7511 77.4129 94.2625 78.0712C93.9938 76.9008 94.9221 77.0227 95.5329 77.0715C94.7511 77.4129 95.6306 78.3638 95.0199 78.5589Z" fill="white"/>
<path opacity="0.4" d="M105.085 69.6587L103.815 70.3658L105.085 69.6587Z" fill="white"/>
<path opacity="0.4" d="M101.005 72.6823L100.81 72.8286L99.906 72.7067C99.6373 72.7067 99.2464 72.7067 99.1731 72.4873L99.3441 72.3653C99.3441 72.5604 99.8083 72.5361 100.101 72.5848L101.005 72.6823Z" fill="white"/>
<path opacity="0.3" d="M102.349 41.7411L102.227 41.2999L102.349 41.7411Z" fill="white"/>
<path opacity="0.4" d="M95.142 73.9502C95.7039 74.3151 96.8521 73.4637 96.7544 74.2908L95.142 73.9502Z" fill="white"/>
<path opacity="0.3" d="M102.3 40.7634C103.229 41.056 104.523 41.0073 103.131 41.4218C102.919 41.131 102.632 40.9033 102.3 40.7634Z" fill="white"/>
<path opacity="0.4" d="M95.7283 72.4872L95.5573 72.6091L95.142 72.1215L95.313 72.0239L95.7283 72.4872Z" fill="white"/>
<path opacity="0.3" d="M99.9304 40.2026H100.101L98.7333 39.6173H98.8799L99.173 39.7393L99.906 39.9831C100.612 40.2091 101.33 40.3964 102.056 40.5439C101.276 40.3975 100.509 40.1937 99.7594 39.9343C99.4938 39.8601 99.2328 39.7706 98.9776 39.6661H98.831L100.199 40.2513L99.9304 40.2026Z" fill="white"/>
<path opacity="0.4" d="M94.7512 70.6585C94.0182 68.4639 92.87 69.8538 93.8961 67.5617C92.87 68.9272 96.4369 69.6587 94.7512 70.6585Z" fill="white"/>
<path opacity="0.3" d="M99.051 39.7881C99.7985 40.0849 100.566 40.3293 101.348 40.5196C100.565 40.3334 99.7971 40.0889 99.051 39.7881Z" fill="white"/>
<path opacity="0.4" d="M98.0494 65.3914L97.3898 64.855L98.0494 65.3914Z" fill="white"/>
<path opacity="0.4" d="M91.3789 68.2687L91.2329 67.3665L91.3789 68.2687Z" fill="white"/>
<path opacity="0.4" d="M97.5607 63.7089L97.3164 62.9774L97.5607 63.7089Z" fill="white"/>
<path opacity="0.4" d="M95.0933 62.1971C95.0933 62.636 95.3621 63.075 95.4842 63.5139L94.849 62.5141L95.0933 62.1971Z" fill="white"/>
<path d="M86.1027 11.7462C86.3715 9.1615 88.5458 7.55218 90.9889 6.13789L94.9223 4.16278C96.283 3.50006 97.562 2.68177 98.7335 1.72436C111.193 -1.98203 121.43 3.96767 129.443 5.65018C129.019 5.76642 128.572 5.76642 128.148 5.65018C127.635 5.65018 127.024 5.35759 126.487 5.21128C125.995 4.97688 125.45 4.87389 124.907 4.91236C124.363 4.95082 123.838 5.12942 123.384 5.43073C123.886 5.95273 124.496 6.36024 125.17 6.62538C125.845 6.89053 126.569 7.00705 127.293 6.96695C128.612 7.08887 129.736 7.13758 130.054 8.28364C128.954 7.96664 126.291 7.67403 126.609 9.50285C128.612 10.3075 132.106 10.7221 133.059 12.2827C131.495 11.6731 129.614 10.015 127.831 11.0635C128.365 13.0875 129.093 15.0555 130.005 16.9401C127.928 17.0864 126.658 14.5016 124.63 16.1598C124.997 18.5982 129.37 16.6231 128.954 19.2078C126.81 18.7889 124.638 18.5281 122.456 18.4275C120.089 18.2691 117.714 18.2691 115.346 18.4275L116.104 20.6221C112.366 20.1881 108.604 19.9845 104.841 20.0125L93.0655 19.8418C91.5508 19.7199 89.3765 19.8418 87.6174 19.6711C85.8584 19.5004 84.4414 19.0615 85.0033 17.0376C85.1988 15.9403 84.588 15.3795 84.3193 14.7211C84.0505 14.0627 84.1971 13.258 86.1027 11.7462Z" fill="#8492C7"/>
<path opacity="0.4" d="M77.1121 40.6659C77.2342 41.1292 77.3319 41.5926 77.4785 42.0315L77.2342 41.7632L77.1121 40.6659Z" fill="white"/>
<path opacity="0.4" d="M78.2115 38.9103L77.0389 39.5443L76.99 38.9347L78.2115 38.9103Z" fill="white"/>
<path d="M107.015 72.9262C106.234 71.9508 105.036 73.4871 104.719 74.2673L106.111 71.8289L107.015 72.9262Z" fill="#8492C7"/>
<path d="M104.841 74.5355C105.133 74.755 104.841 75.1207 104.841 75.5109C105.035 75.0476 104.597 74.8525 104.841 74.5355Z" fill="#8492C7"/>
<path d="M109.825 70.3171L106.6 70.9998L108.97 70.2683L109.825 70.3171Z" fill="#8492C7"/>
<path opacity="0.4" d="M77.5763 35.1794C77.3644 35.6961 77.1849 36.2255 77.0388 36.7644L76.5013 35.7647L77.5763 35.1794Z" fill="white"/>
<path d="M105.623 76.7544L106.331 77.1437L105.623 76.7544Z" fill="#8492C7"/>
<path d="M113.709 72.024L110.68 70.3415L113.636 71.6338L113.709 72.024Z" fill="#8492C7"/>
<path d="M109.483 78.9486L109.532 78.7783L110.68 78.8026L110.631 78.9972L109.483 78.9486Z" fill="#8492C7"/>
<path opacity="0.4" d="M78.5779 25.7672H78.3824C78.7489 25.1576 79.1398 24.5723 79.5307 23.9871H79.7017C79.3108 24.6455 78.9444 25.2307 78.5779 25.7672Z" fill="white"/>
<path opacity="0.4" d="M81.0211 21.378L79.4575 21.9145L80.3615 20.8903L81.0211 21.378Z" fill="white"/>
<path d="M112.244 79.0959L112.293 78.9003L112.637 78.9248L112.587 79.1204L112.244 79.0959Z" fill="#8492C7"/>
<path d="M115.371 72.9261L115.175 72.3409L115.688 72.3653L115.371 72.9261Z" fill="#8492C7"/>
<path d="M115.933 76.8521L115.566 75.8523L116.128 76.2912L115.933 76.8521Z" fill="#8492C7"/>
<path d="M137.554 32.8142C139.606 31.7657 141.683 28.6933 144.468 27.6204C146.09 27.4143 147.732 27.4143 149.354 27.6204C150.553 27.8011 151.716 28.1714 152.799 28.7176C154.909 29.9856 157.155 31.016 159.493 31.7901C157.489 34.9356 160.812 34.3991 161.936 35.1063L160.079 36.8376C160.275 40.1051 163.964 41.9339 164.794 43.7383C163.793 43.4457 162.351 42.1777 161.423 43.7383C161.96 45.3964 163.866 45.2989 165.185 46.5669C164.611 46.4337 164.012 46.448 163.444 46.6082C162.877 46.7685 162.359 47.0697 161.939 47.4835C161.52 47.8973 161.212 48.4104 161.045 48.975C160.878 49.5396 160.856 50.1372 160.983 50.7122C161.618 51.8095 162.889 51.7363 162.815 52.8336C161.276 53.2481 159.639 49.176 158.687 50.9316C157.441 53.3701 161.716 52.6873 161.276 55.0769C158.833 53.8333 156.39 51.2243 153.629 51.5413C153.483 52.6142 154.387 53.2969 154.265 54.3942C150.869 52.3215 146.935 50.5171 143.662 48.1518C141.971 47.1568 140.508 45.8211 139.363 44.2299C138.219 42.6387 137.42 40.827 137.016 38.9103C136.259 36.4231 138.116 35.1307 137.554 32.8142Z" fill="#8492C7"/>
<path opacity="0.3" d="M144.297 41.3974L143.588 40.8366L144.37 41.2023L144.297 41.3974Z" fill="white"/>
<path opacity="0.3" d="M144.761 41.2999L145.252 41.8146L144.761 41.2999Z" fill="white"/>
<path opacity="0.3" d="M151.919 37.6423C151.528 36.7157 149.476 40.0807 149.476 37.6423H151.919Z" fill="white"/>
<path opacity="0.3" d="M154.509 46.9814L153.678 47.2009L153.825 46.3718L154.509 46.9814Z" fill="white"/>
<path d="M156.17 64.9038L155.804 64.1235L155.877 63.6602L156.17 64.9038Z" fill="#8492C7"/>
<path d="M160.299 67.5373L156.903 65.7816L159.517 67.2934L160.299 67.5373Z" fill="#8492C7"/>
<path d="M162.986 65.8548L163.573 66.4888L162.742 67.391L163.573 66.4888L162.986 65.8548Z" fill="#8492C7"/>
<path d="M186.074 119.305C184.852 120.061 187.491 120.427 185.634 121.012C185.756 120.378 185.316 119.597 186.074 119.305Z" fill="#8492C7"/>
<path d="M189.47 117.037C188.37 117.257 186.758 117.379 186.391 118.256C186.318 116.793 188.468 117.671 189.47 117.037Z" fill="#8492C7"/>
<path d="M195.113 123.206L193.745 123.718L194.258 123.401L195.113 123.206Z" fill="#8492C7"/>
<path d="M194.307 116.769L195.724 116.647L194.307 116.769Z" fill="#8492C7"/>
<path d="M197.141 122.914L198.191 122.426L197.141 122.914Z" fill="#8492C7"/>
<path opacity="0.3" d="M186.978 79.802V79.6074C187.189 79.6207 187.401 79.6207 187.613 79.6074V79.8264L186.978 79.802Z" fill="white"/>
<path opacity="0.3" d="M189.201 83.2894L188.932 83.0944L188.81 81.2412L189.201 83.2894Z" fill="white"/>
<path d="M200.561 117.72C199.682 117.5 198.802 117.33 197.922 117.086C198.631 117.086 199.315 117.086 200.024 117.086L200.561 117.72Z" fill="#8492C7"/>
<path opacity="0.3" d="M190.813 83.4358C191.424 84.1429 190.569 84.3136 189.885 84.4355L190.813 83.4358Z" fill="white"/>
<path opacity="0.3" d="M190.227 68.6102C190.01 68.8947 189.773 69.1636 189.518 69.4148L189.811 68.6833L190.227 68.6102Z" fill="white"/>
<path opacity="0.3" d="M193.843 82.3374L193.818 82.1428L194.698 81.9239L194.747 82.0942L193.843 82.3374Z" fill="white"/>
<path opacity="0.3" d="M190.813 66.8789L190.764 66.6594L191.961 66.3668L191.986 66.5863L190.813 66.8789Z" fill="white"/>
<path opacity="0.3" d="M197.336 76.4862C199.291 76.8276 196.652 77.364 196.457 77.6323C196.066 76.9739 196.799 77.0958 197.336 76.4862Z" fill="white"/>
<path opacity="0.3" d="M199.046 78.5102L198.118 79.5343L198.387 78.7784L199.046 78.5102Z" fill="white"/>
<path opacity="0.3" d="M200.146 74.0234C199.315 73.7552 198.484 73.5357 197.703 73.2431C198.338 73.2431 198.924 73.2431 199.559 73.2431L200.146 74.0234Z" fill="white"/>
<path d="M228.192 66.8302C228.95 66.2693 230.342 65.0013 230.953 65.6597C230.66 67.586 228.876 67.1715 228.29 68.5614C227.41 69.2929 227.655 67.2203 228.192 66.8302Z" fill="white"/>
<path d="M222.427 44.7625L223.355 43.592C222.549 44.5918 222.744 46.8351 221.327 47.4935L222.622 43.397L222.427 44.7625Z" fill="#8492C7"/>
<path d="M224.357 39.5199C225.261 40.5684 223.477 41.2023 223.208 42.3728C223.491 41.3847 223.876 40.4286 224.357 39.5199Z" fill="#8492C7"/>
<path opacity="0.3" d="M246.784 47.5422C246.784 48.0044 245.929 47.8584 245.66 47.8584C245.856 47.3719 246.247 47.5422 246.784 47.5422Z" fill="white"/>
<path opacity="0.3" d="M184.266 72.658L183.166 71.7558L184.241 72.4385L184.266 72.658Z" fill="white"/>
<path opacity="0.3" d="M184.632 70.8048L184.266 70.7804L184.363 70.1464L184.632 70.8048Z" fill="white"/>
<path opacity="0.3" d="M189.763 74.5843L189.298 75.4865L189.225 75.0963L189.763 74.5843Z" fill="white"/>
<path opacity="0.3" d="M190.666 60.4659C191.131 61.0755 189.689 61.807 189.274 61.6607C189.86 61.5632 190.789 61.3681 190.666 60.4659Z" fill="white"/>
<path opacity="0.3" d="M191.326 58.2225C190.984 58.2225 190.667 58.0518 190.349 57.9786C190.667 57.9786 190.96 57.9786 191.277 57.7836L191.326 58.2225Z" fill="white"/>
<path opacity="0.3" d="M193.623 61.7582C193.378 61.857 193.125 61.9305 192.865 61.9776C194.429 60.3195 194.478 60.734 195.675 61.7094C193.965 61.1485 193.769 62.4653 192.059 63.148C192.523 62.3434 193.256 63.0749 193.623 61.7582Z" fill="white"/>
<path d="M221.62 61.9289C224.063 58.7833 226.751 58.6614 228.314 60.1489C230.464 61.9777 234.715 62.5873 231.979 67.903C228.778 69.0003 224.479 70.3415 222.207 68.3176C221.708 67.9655 221.291 67.5096 220.986 66.9815C220.681 66.4533 220.494 65.8653 220.438 65.2581C220.382 64.6509 220.459 64.0388 220.663 63.464C220.867 62.8893 221.194 62.3655 221.62 61.9289Z" fill="#8492C7"/>
<path d="M265.254 52.8824L264.35 53.3457L263.69 53.7114L262.884 54.1747C261.776 54.7787 260.624 55.3004 259.439 55.7353L256.63 56.9301L253.698 58.0275C252.696 58.3688 251.719 58.6614 250.766 58.9297L245.88 60.5634C242.484 61.6606 239.553 62.4653 236.987 63.0018L235.131 63.4651L234.251 63.6602L233.811 63.7821L232.81 64.0503L225.48 66.0742C216.246 68.5126 209.552 70.0732 203.077 71.5119L200.952 71.9752H200.219C199.958 72.0825 199.712 72.2217 199.486 72.3897C199.095 72.7311 198.9 72.9261 199.169 73.365C198.982 73.1514 198.768 72.9629 198.533 72.8043L198.24 72.536C198.631 72.1946 195.797 73.1456 203.126 71.4875C212.899 69.2929 223.086 66.757 233.225 63.9528L234.105 63.7089H234.495L235.277 63.5139L236.89 63.1237L240.041 62.2947C242.167 61.7338 244.268 61.0998 246.369 60.4171L249.496 59.393L250.253 59.1247L250.644 58.9784H250.889L251.744 58.7345C252.867 58.3932 253.991 58.0274 255.115 57.6129C257.216 56.8814 259.806 55.6378 260.661 55.3696C261.847 54.8712 262.998 54.2927 264.106 53.6383C264.284 53.5172 264.472 53.4112 264.668 53.3213L265.107 53.1018L265.938 52.6142C266.769 51.8339 267.282 51.59 265.254 52.8824Z" fill="#8492C7"/>
<path d="M259.782 55.6132C259.521 55.6793 259.268 55.7689 259.024 55.8808C259.513 55.6862 260.514 55.3213 259.782 55.6132Z" fill="#8492C7"/>
<path d="M255.311 57.4666L254.431 57.7828L255.311 57.4666Z" fill="#8492C7"/>
<path opacity="0.3" d="M258.511 56.1255L259.024 55.8816C257.412 56.6132 257.265 56.6619 256.581 56.9545L257.387 56.6375C252.721 58.4663 257.558 56.6375 253.6 58.0762C255.27 57.5121 256.909 56.861 258.511 56.1255Z" fill="white"/>
<path opacity="0.3" d="M254.553 57.7105L255.995 57.174L254.553 57.7105Z" fill="white"/>
<path opacity="0.3" d="M255.726 57.2715C254.773 57.6373 253.478 58.125 252.061 58.5395L250.986 58.8808L250.449 59.0272L249.472 59.3685L245.612 60.6609L248.592 59.6611L250.082 59.1491L250.449 59.0272H250.669H251.084C251.402 59.0272 251.328 59.0272 251.084 59.0272L250.669 59.1491H250.4L249.936 59.3198L250.571 59.1003C251.622 58.8565 255.457 57.5398 256.019 57.2715C260.563 55.2964 255.408 57.4666 255.726 57.2715Z" fill="white"/>
<path opacity="0.3" d="M251.133 58.8313L251.988 58.5637L252.257 58.4907L251.133 58.8313Z" fill="white"/>
<path opacity="0.3" d="M250.522 59.0029L249.838 59.2467C251.206 58.759 244.952 60.9048 249.838 59.2467C249.349 59.4174 249.447 59.393 249.838 59.2467L250.449 59.0273L250.889 58.9053L250.522 59.0029Z" fill="white"/>
<path opacity="0.3" d="M245.856 60.5633L249.325 59.4173L245.856 60.5633Z" fill="white"/>
<path opacity="0.3" d="M242.973 61.4656C238.624 62.7092 242.826 61.4655 243.462 61.3192L242.973 61.4656Z" fill="white"/>
<path opacity="0.3" d="M239.137 62.5384L234.984 63.587L239.137 62.5384Z" fill="white"/>
<path opacity="0.3" d="M235.522 63.4408C232.614 64.1479 236.792 63.1481 238.331 62.7336L235.522 63.4408Z" fill="white"/>
<path opacity="0.3" d="M220.032 67.5373L214.267 68.976L220.032 67.5373Z" fill="white"/>
<path d="M239.748 62.3435C238.258 62.758 236.841 63.1238 235.399 63.4651L234.325 63.7334L233.714 63.8797L232.37 64.2454L229.658 65.0014H229.414L229.854 64.8795L230.782 64.6112L233.86 63.7821L235.766 63.3188L237.158 62.9775L238.649 62.5873L235.497 63.392L233.86 63.7821L232.126 64.2454L231.613 64.3917L231.93 64.5137C232.077 64.5137 232.101 64.66 232.126 65.1965C232.091 65.6653 231.984 66.126 231.808 66.562C231.654 67.2118 231.39 67.8304 231.026 68.3908C230.64 67.8753 230.297 67.3288 230 66.757C229.74 66.4487 229.454 66.1631 229.145 65.9036C228.863 66.3667 228.61 66.8472 228.388 67.3422C228.181 68.0508 227.72 68.6585 227.093 69.0491C227.557 74.9527 228.373 80.8234 229.536 86.6301L230.416 90.0195C230.723 91.2504 231.098 92.4633 231.539 93.6528C232.028 94.9695 232.541 96.3107 233.103 97.6518L233.958 99.6269C234.256 100.343 234.59 101.043 234.96 101.724C238.217 108.227 242.526 114.151 247.713 119.256C245.836 117.77 244.08 116.14 242.46 114.379C240.924 112.742 239.496 111.007 238.185 109.185L231.246 99.2123C230.977 99.5781 231.564 100.602 232.248 101.651C233.078 102.795 233.76 104.041 234.276 105.357C233.787 104.748 233.298 104.04 232.785 103.285L232.028 102.138L231.393 101.114C230.704 99.8845 229.885 98.7318 228.95 97.6761C228.241 97.6761 228.217 98.5052 228.657 99.7488C228.932 100.494 229.259 101.219 229.634 101.919L230.318 103.187L231.271 104.723C232.614 106.82 234.227 109.039 235.741 111.063L236.841 112.526L237.989 114.014C238.722 114.965 239.382 115.818 239.87 116.452C238.844 115.403 237.794 114.331 236.792 113.233C235.79 112.136 234.96 111.136 234.056 110.039C232.297 107.918 230.513 105.552 228.974 103.309C227.435 101.066 226.262 99.1392 224.992 96.9446L224.064 95.2865L223.306 94.0429L221.889 91.2143L220.521 88.337L219.446 85.8986C218.811 84.3624 218.127 82.6311 217.614 81.1925C217.101 79.7538 216.71 78.754 216.319 77.4373L215.83 75.7792L215.464 74.3649C215.064 73.0364 214.866 71.6555 214.878 70.2683C214.828 70.0682 214.828 69.8589 214.878 69.6587C214.878 69.5124 214.878 69.3661 215.073 69.1954L215.317 68.7321L215.464 68.5127H215.659H216.099H216.343L220.961 67.3422L230.733 64.7575C234.569 63.6846 234.715 63.709 236.035 63.3677C240.457 62.2947 243.364 61.3437 244.439 61.0511C245.514 60.7585 242.778 61.5876 239.553 62.4898C237.916 62.9287 236.035 63.4164 234.227 63.8309L224.015 66.5863L233.274 64.1479L238.16 62.9531C241.141 62.1728 244.048 61.3194 246.662 60.5147L250.327 59.2711L252.086 58.759L253.991 58.125C254.309 58.125 253.136 58.442 251.304 58.9785L250.595 59.1979L249.252 59.6612L246.247 60.661C244.121 61.1243 241.898 61.7826 239.748 62.3435Z" fill="#8492C7"/>
<path d="M251.768 65.3915C253.071 63.4567 254.834 61.8734 256.899 60.7828L257.583 60.4415L258.047 60.3196L259 60.1245C259.585 60.0752 260.173 60.0752 260.759 60.1245C259.855 60.7585 258.584 60.4658 257.534 61.173V60.9292C256.63 61.5876 255.506 61.2218 255.359 62.7336C255.139 62.7336 255.359 62.4409 255.359 62.2459C253.663 63.1519 252.365 64.6557 251.719 66.4644C251.719 69.2198 253.063 65.6597 253.918 67.1471L253.161 68.4882C253.796 68.0005 254.749 68.4883 254.895 67.708V67.8543C255.801 67.8251 256.691 67.6092 257.509 67.2203C258.321 66.7869 259.076 66.2545 259.757 65.6353C260.551 64.8608 261.226 63.9734 261.76 63.0018V62.8311L262.42 62.5629C262.053 62.9774 261.589 63.6602 261.149 64.2454L260.417 65.1964C260.285 65.3721 260.138 65.5353 259.977 65.6841L259.195 66.3668C258.685 66.8193 258.138 67.2272 257.558 67.586C256.953 67.9755 256.306 68.2946 255.628 68.537C254.409 69.0464 253.047 69.0984 251.792 68.6833C250.889 68.2444 250.864 66.7326 251.768 65.3915Z" fill="#8492C7"/>
<path d="M252.257 66.0024C252.723 65.3896 252.404 66.0024 252.257 66.272C252.279 66.1835 252.279 66.091 252.257 66.0024Z" fill="#8492C7"/>
<path d="M260.709 61.3192L260.636 61.5625L260.612 61.4409L260.709 61.3192Z" fill="#8492C7"/>
<path d="M261.124 61.7826L261.027 62.0501L260.905 61.8069L261.124 61.7826Z" fill="#8492C7"/>
<path d="M260.856 60.9785L261.397 60.7828L260.856 60.9785Z" fill="#8492C7"/>
<path d="M267.99 50.8098V50.7854L268.015 50.7609L267.868 50.9077L268.015 50.7609L267.99 50.7854V50.8098Z" fill="#8492C7"/>
<path d="M267.282 51.5412L267.599 51.273L267.868 51.0291C267.69 51.2192 267.494 51.3908 267.282 51.5412Z" fill="#8492C7"/>
</g>
</svg>
