<svg width="22" height="22" viewBox="0 0 22 22" fill="none" xmlns="http://www.w3.org/2000/svg">
<path d="M1.05566 1H2.36183C2.60785 1 2.73086 1 2.82985 1.04524C2.91708 1.08511 2.99101 1.14922 3.04281 1.22995C3.1016 1.32154 3.119 1.44332 3.15379 1.68686L3.62709 5M3.62709 5L4.67898 12.7314C4.81247 13.7125 4.87921 14.2031 5.11376 14.5723C5.32044 14.8977 5.61675 15.1564 5.96702 15.3174C6.36453 15.5 6.85961 15.5 7.84977 15.5H16.4077C17.3502 15.5 17.8215 15.5 18.2066 15.3304C18.5462 15.1809 18.8375 14.9398 19.0479 14.6342C19.2866 14.2876 19.3748 13.8247 19.5511 12.8988L20.8748 5.94969C20.9368 5.62381 20.9679 5.46087 20.9229 5.3335C20.8834 5.22177 20.8056 5.12768 20.7032 5.06802C20.5865 5 20.4206 5 20.0889 5H3.62709ZM9.05566 20C9.05566 20.5523 8.60795 21 8.05566 21C7.50338 21 7.05566 20.5523 7.05566 20C7.05566 19.4477 7.50338 19 8.05566 19C8.60795 19 9.05566 19.4477 9.05566 20ZM17.0557 20C17.0557 20.5523 16.6079 21 16.0557 21C15.5034 21 15.0557 20.5523 15.0557 20C15.0557 19.4477 15.5034 19 16.0557 19C16.6079 19 17.0557 19.4477 17.0557 20Z" stroke="#3D3B3C" stroke-linecap="round" stroke-linejoin="round"/>
</svg>
