<svg width="27" height="10" viewBox="0 0 27 10" fill="none" xmlns="http://www.w3.org/2000/svg">
<path d="M7.704 6.948C7.704 7.092 7.692 7.24 7.668 7.392C7.644 7.536 7.624 7.68 7.608 7.824C7.584 7.984 7.568 8.148 7.56 8.316C7.552 8.476 7.528 8.636 7.488 8.796C7.48 8.844 7.456 8.892 7.416 8.94C7.384 8.98 7.34 9 7.284 9C6.428 9 5.572 8.996 4.716 8.988C3.86 8.972 3.004 8.964 2.148 8.964C1.892 8.964 1.632 8.976 1.368 9C1.112 9.016 0.856 9.024 0.6 9.024C0.56 9.024 0.52 9.012 0.48 8.988C0.448 8.956 0.432 8.92 0.432 8.88C0.432 8.832 0.444 8.788 0.468 8.748C0.492 8.7 0.532 8.676 0.588 8.676C0.756 8.676 0.916 8.668 1.068 8.652C1.22 8.628 1.344 8.572 1.44 8.484C1.544 8.388 1.596 8.236 1.596 8.028V1.14C1.596 0.956 1.54 0.835999 1.428 0.779999C1.316 0.716 1.18 0.684 1.02 0.684C0.94 0.684 0.864 0.688 0.792 0.696C0.72 0.696 0.648 0.696 0.576 0.696C0.512 0.696 0.456 0.68 0.408 0.648C0.36 0.615999 0.336 0.563999 0.336 0.491999C0.336 0.428 0.348 0.372 0.372 0.323999C0.396 0.276 0.448 0.252 0.528 0.252C0.664 0.252 0.796 0.256 0.924 0.263999C1.06 0.271999 1.192 0.275999 1.32 0.275999C2.128 0.275999 2.936 0.271999 3.744 0.263999C4.552 0.248 5.356 0.24 6.156 0.24C6.524 0.24 6.888 0.228 7.248 0.204C7.28 0.435999 7.32 0.668 7.368 0.9C7.416 1.132 7.456 1.364 7.488 1.596C7.504 1.644 7.516 1.692 7.524 1.74C7.532 1.78 7.536 1.824 7.536 1.872C7.536 1.952 7.508 2.008 7.452 2.04C7.404 2.072 7.344 2.088 7.272 2.088C7.208 2.088 7.16 2.076 7.128 2.052C7.104 2.02 7.08 1.972 7.056 1.908C6.904 1.428 6.7 1.096 6.444 0.912C6.196 0.728 5.816 0.636 5.304 0.636H2.808V4.248C3.12 4.248 3.432 4.248 3.744 4.248C4.056 4.24 4.372 4.228 4.692 4.212C5.02 4.196 5.324 4.168 5.604 4.128C5.892 4.08 6.196 4.028 6.516 3.972H6.528C6.576 3.972 6.6 3.992 6.6 4.032C6.6 4.088 6.576 4.188 6.528 4.332C6.48 4.476 6.444 4.572 6.42 4.62C6.38 4.716 6.316 4.764 6.228 4.764C6.028 4.764 5.82 4.752 5.604 4.728C5.396 4.696 5.188 4.68 4.98 4.68C4.836 4.672 4.692 4.672 4.548 4.68C4.404 4.68 4.256 4.68 4.104 4.68C4.048 4.68 3.988 4.68 3.924 4.68C3.868 4.672 3.808 4.668 3.744 4.668C3.624 4.668 3.492 4.68 3.348 4.704C3.204 4.72 3.076 4.768 2.964 4.848C2.86 4.92 2.808 5.04 2.808 5.208V8.088C2.808 8.36 2.876 8.52 3.012 8.568C3.148 8.608 3.328 8.628 3.552 8.628H4.512C4.736 8.628 4.984 8.616 5.256 8.592C5.536 8.568 5.808 8.516 6.072 8.436C6.336 8.356 6.552 8.24 6.72 8.088C6.904 7.92 7.032 7.736 7.104 7.536C7.184 7.328 7.276 7.12 7.38 6.912C7.42 6.84 7.484 6.804 7.572 6.804C7.66 6.804 7.704 6.852 7.704 6.948ZM17.2659 0.408C17.2659 0.431999 17.2579 0.467999 17.2419 0.516C17.2259 0.556 17.1979 0.576 17.1579 0.576C17.0939 0.576 17.0299 0.576 16.9659 0.576C16.9019 0.568 16.8379 0.564 16.7739 0.564C16.5579 0.564 16.4059 0.588 16.3179 0.636C16.2379 0.676 16.1899 0.748 16.1739 0.852C16.1659 0.956 16.1619 1.1 16.1619 1.284V8.856C16.1619 8.928 16.1339 8.964 16.0779 8.964L15.5379 8.976C15.5059 8.8 15.4459 8.624 15.3579 8.448C15.2779 8.272 15.1819 8.112 15.0699 7.968C14.2059 6.832 13.3419 5.704 12.4779 4.584C11.6139 3.456 10.7619 2.32 9.92194 1.176V8.34C9.92194 8.452 9.96194 8.532 10.0419 8.58C10.1299 8.62 10.2259 8.644 10.3299 8.652C10.4419 8.652 10.5379 8.652 10.6179 8.652C10.6819 8.652 10.7419 8.652 10.7979 8.652C10.8619 8.644 10.9259 8.64 10.9899 8.64C11.0619 8.64 11.0979 8.684 11.0979 8.772C11.0979 8.836 11.0899 8.892 11.0739 8.94C11.0659 8.988 11.0179 9.012 10.9299 9.012C10.8579 9.012 10.7819 9.008 10.7019 9C10.6299 8.984 10.5579 8.972 10.4859 8.964C10.3659 8.948 10.2419 8.944 10.1139 8.952C9.98594 8.952 9.86194 8.952 9.74194 8.952C9.51794 8.952 9.29794 8.964 9.08194 8.988C8.87394 9.004 8.65794 9.012 8.43394 9.012C8.37794 9.012 8.34994 8.976 8.34994 8.904C8.34994 8.784 8.36194 8.712 8.38594 8.688C8.40994 8.664 8.47794 8.652 8.58994 8.652C8.65394 8.652 8.71394 8.656 8.76994 8.664C8.83394 8.664 8.89394 8.664 8.94994 8.664C9.07794 8.664 9.18994 8.648 9.28594 8.616C9.38994 8.584 9.44594 8.492 9.45394 8.34C9.46994 7.956 9.47394 7.568 9.46594 7.176C9.45794 6.784 9.45394 6.396 9.45394 6.012C9.45394 5.172 9.45794 4.332 9.46594 3.492C9.48194 2.652 9.48994 1.808 9.48994 0.96C9.48994 0.816 9.44994 0.716 9.36994 0.659999C9.29794 0.596 9.20594 0.56 9.09394 0.551999C8.98194 0.543999 8.86994 0.539999 8.75794 0.539999C8.71794 0.539999 8.67394 0.543999 8.62594 0.551999C8.57794 0.551999 8.53394 0.551999 8.49394 0.551999C8.38994 0.551999 8.33794 0.511999 8.33794 0.431999C8.33794 0.376 8.34194 0.328 8.34994 0.288C8.36594 0.24 8.40994 0.215999 8.48194 0.215999C8.68994 0.215999 8.89794 0.224 9.10594 0.24C9.31394 0.248 9.52194 0.252 9.72994 0.252C9.87394 0.252 10.0179 0.252 10.1619 0.252C10.3139 0.244 10.4619 0.24 10.6059 0.24C10.9019 0.64 11.2059 1.032 11.5179 1.416C11.8299 1.8 12.1419 2.184 12.4539 2.568C12.9979 3.232 13.5419 3.896 14.0859 4.56C14.6299 5.216 15.1739 5.876 15.7179 6.54V0.875999C15.7179 0.763999 15.6579 0.684 15.5379 0.636C15.4179 0.588 15.3139 0.564 15.2259 0.564C15.1219 0.564 15.0219 0.568 14.9259 0.576C14.8299 0.584 14.7299 0.588 14.6259 0.588C14.5699 0.588 14.5419 0.548 14.5419 0.468C14.5419 0.444 14.5419 0.42 14.5419 0.396C14.5419 0.364 14.5459 0.34 14.5539 0.323999C14.5539 0.251999 14.5979 0.215999 14.6859 0.215999C14.7979 0.215999 14.9139 0.224 15.0339 0.24C15.1539 0.248 15.2699 0.252 15.3819 0.252C15.6859 0.252 15.9859 0.248 16.2819 0.24C16.5779 0.232 16.8739 0.216 17.1699 0.192C17.2179 0.224 17.2459 0.256 17.2539 0.288C17.2619 0.312 17.2659 0.352 17.2659 0.408ZM26.6052 5.304C26.6052 5.352 26.5932 5.396 26.5692 5.436C26.5452 5.476 26.5052 5.496 26.4492 5.496H25.7052V8.064C25.1452 8.256 24.5892 8.468 24.0372 8.7C23.7732 8.812 23.4932 8.884 23.1972 8.916C22.9092 8.948 22.6252 8.964 22.3452 8.964C22.1052 8.964 21.8372 8.936 21.5412 8.88C21.2452 8.824 20.9572 8.744 20.6772 8.64C20.4052 8.536 20.1652 8.416 19.9572 8.28C19.3492 7.872 18.8972 7.344 18.6012 6.696C18.3132 6.048 18.1692 5.36 18.1692 4.632C18.1692 4.016 18.2652 3.436 18.4572 2.892C18.6572 2.348 18.9412 1.868 19.3092 1.452C19.6772 1.036 20.1172 0.711999 20.6292 0.48C21.1492 0.24 21.7292 0.12 22.3692 0.12C22.8412 0.12 23.2932 0.184 23.7252 0.312C23.7972 0.336 23.9132 0.372 24.0732 0.42C24.2332 0.467999 24.3932 0.516 24.5532 0.564C24.7132 0.604 24.8212 0.624 24.8772 0.624C25.0452 0.624 25.1612 0.604 25.2252 0.564C25.2892 0.516 25.3372 0.464 25.3692 0.408C25.4092 0.352 25.4652 0.307999 25.5372 0.275999H25.6332C25.6972 0.275999 25.7332 0.311999 25.7412 0.383999C25.7572 0.464 25.7612 0.548 25.7532 0.636C25.7532 0.724 25.7532 0.812 25.7532 0.9C25.7532 1.148 25.7572 1.396 25.7652 1.644C25.7812 1.892 25.7892 2.144 25.7892 2.4C25.7892 2.496 25.7852 2.608 25.7772 2.736C25.7772 2.864 25.7052 2.928 25.5612 2.928C25.5132 2.928 25.4692 2.924 25.4292 2.916C25.3972 2.9 25.3652 2.872 25.3332 2.832C25.3252 2.816 25.3052 2.772 25.2732 2.7C25.2412 2.62 25.2092 2.54 25.1772 2.46C25.1452 2.372 25.1212 2.312 25.1052 2.28C24.8892 1.792 24.5732 1.384 24.1572 1.056C23.9412 0.88 23.6652 0.74 23.3292 0.636C23.0012 0.532 22.6972 0.48 22.4172 0.48C21.8812 0.48 21.4252 0.612 21.0492 0.875999C20.6732 1.132 20.3692 1.468 20.1372 1.884C19.9052 2.3 19.7372 2.748 19.6332 3.228C19.5292 3.708 19.4772 4.172 19.4772 4.62C19.4772 5.092 19.5332 5.556 19.6452 6.012C19.7572 6.468 19.9292 6.88 20.1612 7.248C20.4012 7.616 20.7132 7.912 21.0972 8.136C21.4812 8.352 21.9412 8.46 22.4772 8.46C22.6372 8.46 22.8292 8.444 23.0532 8.412C23.2772 8.38 23.5012 8.324 23.7252 8.244C23.9492 8.164 24.1332 8.056 24.2772 7.92C24.4292 7.784 24.5052 7.612 24.5052 7.404V5.82C24.5052 5.692 24.4412 5.612 24.3132 5.58C24.1932 5.54 24.0892 5.52 24.0012 5.52C23.8812 5.52 23.7612 5.528 23.6412 5.544C23.5212 5.552 23.4012 5.556 23.2812 5.556C23.2172 5.556 23.1732 5.536 23.1492 5.496C23.1332 5.456 23.1252 5.408 23.1252 5.352C23.1252 5.304 23.1332 5.26 23.1492 5.22C23.1652 5.172 23.2052 5.148 23.2692 5.148C23.3972 5.148 23.5212 5.152 23.6412 5.16C23.7612 5.16 23.8852 5.16 24.0132 5.16H24.8652C25.0012 5.16 25.1372 5.16 25.2732 5.16C25.4092 5.16 25.5452 5.156 25.6812 5.148C25.8172 5.148 25.9492 5.144 26.0772 5.136C26.2052 5.12 26.3332 5.112 26.4612 5.112C26.5092 5.112 26.5452 5.136 26.5692 5.184C26.5932 5.224 26.6052 5.264 26.6052 5.304Z" fill="#3D3B3C"/>
</svg>
